0
SECTION
2
HEADER
9
$INSUNITS
70
4
9
$ACADVER
1
AC1014
9
$HANDSEED
5
FFFF
0
ENDSEC
0
SECTION
2
TABLES
0
TABLE
2
VPORT
5
8
100
AcDbSymbolTable
0
ENDTAB
0
TABLE
2
LTYPE
5
5
100
AcDbSymbolTable
0
LTYPE
5
14
100
AcDbSymbolTableRecord
100
AcDbLinetypeTableRecord
2
BYBLOCK
70
0
0
LTYPE
5
15
100
AcDbSymbolTableRecord
100
AcDbLinetypeTableRecord
2
BYLAYER
70
0
0
ENDTAB
0
TABLE
2
LAYER
5
2
100
AcDbSymbolTable
70
2
0
LAYER
5
50
100
AcDbSymbolTableRecord
100
AcDbLayerTableRecord
2
0
70
0
6
CONTINUOUS
0
ENDTAB
0
TABLE
2
STYLE
5
3
100
AcDbSymbolTable
70
1
0
STYLE
5
11
100
AcDbSymbolTableRecord
100
AcDbTextStyleTableRecord
2
STANDARD
70
0
0
ENDTAB
0
TABLE
2
VIEW
5
6
100
AcDbSymbolTable
70
0
0
ENDTAB
0
TABLE
2
UCS
5
7
100
AcDbSymbolTable
70
0
0
ENDTAB
0
TABLE
2
APPID
5
9
100
AcDbSymbolTable
70
2
0
APPID
5
12
100
AcDbSymbolTableRecord
100
AcDbRegAppTableRecord
2
ACAD
70
0
0
ENDTAB
0
TABLE
2
DIMSTYLE
5
A
100
AcDbSymbolTable
70
1
0
ENDTAB
0
TABLE
2
BLOCK_RECORD
5
1
100
AcDbSymbolTable
70
1
0
BLOCK_RECORD
5
1F
100
AcDbSymbolTableRecord
100
AcDbBlockTableRecord
2
*MODEL_SPACE
0
BLOCK_RECORD
5
1B
100
AcDbSymbolTableRecord
100
AcDbBlockTableRecord
2
*PAPER_SPACE
0
ENDTAB
0
ENDSEC
0
SECTION
2
BLOCKS
0
BLOCK
5
20
100
AcDbEntity
100
AcDbBlockBegin
2
*MODEL_SPACE
0
ENDBLK
5
21
100
AcDbEntity
100
AcDbBlockEnd
0
BLOCK
5
1C
100
AcDbEntity
100
AcDbBlockBegin
2
*PAPER_SPACE
0
ENDBLK
5
1D
100
AcDbEntity
100
AcDbBlockEnd
0
ENDSEC
0
SECTION
2
ENTITIES
0
CIRCLE
5
100
100
AcDbEntity
8
0
100
AcDbCircle
10
195
20
-95
30
0
40
1.75
210
0
220
0
230
1
0
LWPOLYLINE
5
101
100
AcDbEntity
8
0
100
AcDbPolyline
90
8
70
1
43
0.0
10
198
20
-100.00000000000006
42
0.41421356237309503
10
200
20
-98.000000000000043
10
200
20
-1.9999999999999973
42
0.4142135623730947
10
198
20
-4.276423536147513e-49
10
1.9999999999999996
20
0
42
0.41421356237309503
10
0
20
-1.9999999999999929
10
-5.8286708792820718e-15
20
-98
42
0.41421356237309065
10
1.9999999999999574
20
-100
0
CIRCLE
5
102
100
AcDbEntity
8
0
100
AcDbCircle
10
107.99999999999999
20
-95
30
0
40
1.75
210
0
220
0
230
1
0
CIRCLE
5
103
100
AcDbEntity
8
0
100
AcDbCircle
10
195
20
-5
30
0
40
1.75
210
0
220
0
230
1
0
CIRCLE
5
104
100
AcDbEntity
8
0
100
AcDbCircle
10
195
20
-45
30
0
40
1.75
210
0
220
0
230
1
0
CIRCLE
5
105
100
AcDbEntity
8
0
100
AcDbCircle
10
107.99999999999999
20
-5
30
0
40
1.75
210
0
220
0
230
1
0
CIRCLE
5
106
100
AcDbEntity
8
0
100
AcDbCircle
10
4.9999999999999947
20
-95
30
0
40
1.75
210
0
220
0
230
1
0
CIRCLE
5
107
100
AcDbEntity
8
0
100
AcDbCircle
10
4.9999999999999947
20
-45
30
0
40
1.75
210
0
220
0
230
1
0
CIRCLE
5
108
100
AcDbEntity
8
0
100
AcDbCircle
10
4.9999999999999947
20
-5
30
0
40
1.75
210
0
220
0
230
1
0
LWPOLYLINE
5
109
100
AcDbEntity
8
0
100
AcDbPolyline
90
2
70
1
43
0.0
10
23.014212623238564
20
-10
10
23.023808971047401
20
-10
0
SPLINE
5
110
100
AcDbEntity
8
0
100
AcDbSpline
70
0
71
2
72
6
73
3
74
0
42
0.000000001
43
0.0000000001
44
0.0000000001
40
0
40
0
40
0
40
1
40
1
40
1
10
18.80538322031498
20
-14.468970894813538
30
0
10
18.80538322031498
20
-13.829175233840942
30
0
10
18.165587559342384
20
-13.829175233840942
30
0
0
LINE
5
111
100
AcDbEntity
8
0
100
AcDbLine
10
18.165587559342384
20
-13.829175233840944
30
0
11
18.165587559342384
21
-11.909789443016052
31
0
0
SPLINE
5
112
100
AcDbEntity
8
0
100
AcDbSpline
70
0
71
2
72
6
73
3
74
0
42
0.000000001
43
0.0000000001
44
0.0000000001
40
0
40
0
40
0
40
1
40
1
40
1
10
18.165587559342384
20
-11.909789443016052
30
0
10
21.364564672112465
20
-11.909789443016052
30
0
10
21.364564672112465
20
-14.468970894813538
30
0
0
LINE
5
113
100
AcDbEntity
8
0
100
AcDbLine
10
21.364564672112465
20
-14.468970894813538
30
0
11
21.364564672112465
21
-18.30774188041687
31
0
0
SPLINE
5
114
100
AcDbEntity
8
0
100
AcDbSpline
70
0
71
2
72
6
73
3
74
0
42
0.000000001
43
0.0000000001
44
0.0000000001
40
0
40
0
40
0
40
1
40
1
40
1
10
21.364564672112465
20
-18.30774188041687
30
0
10
21.364564672112465
20
-20.866923332214355
30
0
10
18.165587559342384
20
-20.866923332214355
30
0
0
LINE
5
115
100
AcDbEntity
8
0
100
AcDbLine
10
18.165587559342384
20
-20.866923332214355
30
0
11
15.606406703591347
21
-20.866923332214355
31
0
0
LINE
5
116
100
AcDbEntity
8
0
100
AcDbLine
10
15.606406703591347
20
-20.866923332214355
30
0
11
15.606406703591347
21
-18.947537541389465
31
0
0
LINE
5
117
100
AcDbEntity
8
0
100
AcDbLine
10
15.606406703591347
20
-18.947537541389465
30
0
11
18.165587559342384
21
-18.947537541389465
31
0
0
SPLINE
5
118
100
AcDbEntity
8
0
100
AcDbSpline
70
0
71
2
72
6
73
3
74
0
42
0.000000001
43
0.0000000001
44
0.0000000001
40
0
40
0
40
0
40
1
40
1
40
1
10
18.165587559342384
20
-18.947537541389465
30
0
10
18.80538322031498
20
-18.947537541389465
30
0
10
18.80538322031498
20
-18.30774188041687
30
0
0
LINE
5
119
100
AcDbEntity
8
0
100
AcDbLine
10
18.805383220314976
20
-18.30774188041687
30
0
11
18.80538322031498
21
-14.468970894813538
31
0
0
SPLINE
5
120
100
AcDbEntity
8
0
100
AcDbSpline
70
0
71
2
72
6
73
3
74
0
42
0.000000001
43
0.0000000001
44
0.0000000001
40
0
40
0
40
0
40
1
40
1
40
1
10
14.326816573739052
20
-18.30774188041687
30
0
10
14.326816573739052
20
-18.947537541389465
30
0
10
14.966611638665199
20
-18.947537541389465
30
0
0
LINE
5
121
100
AcDbEntity
8
0
100
AcDbLine
10
14.966611638665199
20
-18.947537541389462
30
0
11
14.966611638665199
21
-20.866923332214355
31
0
0
SPLINE
5
122
100
AcDbEntity
8
0
100
AcDbSpline
70
0
71
2
72
6
73
3
74
0
42
0.000000001
43
0.0000000001
44
0.0000000001
40
0
40
0
40
0
40
1
40
1
40
1
10
14.966611638665199
20
-20.866923332214355
30
0
10
11.76763541996479
20
-20.866923332214355
30
0
10
11.76763541996479
20
-18.30774188041687
30
0
0
LINE
5
123
100
AcDbEntity
8
0
100
AcDbLine
10
11.76763541996479
20
-18.30774188041687
30
0
11
11.76763541996479
21
-14.468970894813538
31
0
0
SPLINE
5
124
100
AcDbEntity
8
0
100
AcDbSpline
70
0
71
2
72
6
73
3
74
0
42
0.000000001
43
0.0000000001
44
0.0000000001
40
0
40
0
40
0
40
1
40
1
40
1
10
11.76763541996479
20
-14.468970894813538
30
0
10
11.76763541996479
20
-11.909789443016052
30
0
10
14.966611638665199
20
-11.909789443016052
30
0
0
LINE
5
125
100
AcDbEntity
8
0
100
AcDbLine
10
14.966611638665199
20
-11.909789443016052
30
0
11
17.525792494416237
21
-11.909789443016052
31
0
0
LINE
5
126
100
AcDbEntity
8
0
100
AcDbLine
10
17.525792494416237
20
-11.909789443016052
30
0
11
17.525792494416237
21
-13.829175233840942
31
0
0
LINE
5
127
100
AcDbEntity
8
0
100
AcDbLine
10
17.525792494416237
20
-13.829175233840942
30
0
11
14.966611638665199
21
-13.829175233840942
31
0
0
SPLINE
5
128
100
AcDbEntity
8
0
100
AcDbSpline
70
0
71
2
72
6
73
3
74
0
42
0.000000001
43
0.0000000001
44
0.0000000001
40
0
40
0
40
0
40
1
40
1
40
1
10
14.966611638665199
20
-13.829175233840942
30
0
10
14.326816573739052
20
-13.829175233840942
30
0
10
14.326816573739052
20
-14.468970894813538
30
0
0
LINE
5
129
100
AcDbEntity
8
0
100
AcDbLine
10
14.326816573739052
20
-14.468970894813538
30
0
11
14.326816573739052
21
-18.30774188041687
31
0
0
LWPOLYLINE
5
130
100
AcDbEntity
8
0
100
AcDbPolyline
90
4
70
1
43
0.0
10
23.014212623238564
20
-9.9904036521911621
10
32.611142173409462
20
-19.587333202362061
10
32.611142173409462
20
-22.786309719085693
10
23.014212623238564
20
-13.189380168914795
0
LWPOLYLINE
5
131
100
AcDbEntity
8
0
100
AcDbPolyline
90
4
70
1
43
0.0
10
30.051961913704872
20
-16.132438182830811
10
30.051961913704872
20
-11.909789443016052
10
32.611142173409462
20
-11.909789443016052
10
32.611142173409462
20
-18.691619634628296
0
LWPOLYLINE
5
132
100
AcDbEntity
8
0
100
AcDbPolyline
90
4
70
1
43
0.0
10
25.573394075036049
20
-16.644274592399597
10
25.573394075036049
20
-20.866923332214355
10
23.014212623238564
20
-20.866923332214355
10
23.014212623238564
20
-14.08509373664856
0
LINE
5
133
100
AcDbEntity
8
0
100
AcDbLine
10
43.217922225594521
20
-13.829175233840942
30
0
11
34.260786548256874
21
-13.829175233840942
31
0
0
LINE
5
134
100
AcDbEntity
8
0
100
AcDbLine
10
34.260786548256874
20
-11.9097900390625
30
0
11
43.217922225594521
21
-11.909789443016052
31
0
0
LINE
5
135
100
AcDbEntity
8
0
100
AcDbLine
10
43.217922225594521
20
-11.909789443016052
30
0
11
43.217922225594521
21
-13.829175233840942
31
0
0
LWPOLYLINE
5
136
100
AcDbEntity
8
0
100
AcDbPolyline
90
6
70
1
43
0.0
10
34.260786548256874
20
-14.468970894813538
10
36.819969192147255
20
-14.468970894813538
10
36.819969192147255
20
-18.947537541389465
10
43.217922225594521
20
-18.947537541389465
10
43.217922225594521
20
-20.866923332214355
10
34.260786548256874
20
-20.866923332214355
0
LWPOLYLINE
5
137
100
AcDbEntity
8
0
100
AcDbPolyline
90
4
70
1
43
0.0
10
43.217922225594521
20
-17.667946815490723
10
39.379149451851845
20
-17.667946815490723
10
37.459763064980507
20
-15.748561024665833
10
43.217922225594521
20
-15.748561024665833
0
LWPOLYLINE
5
138
100
AcDbEntity
8
0
100
AcDbPolyline
90
4
70
1
43
0.0
10
57.444916740059853
20
-13.829175233840942
10
48.487783446907997
20
-13.829175233840942
10
47.208193317055702
20
-11.909789443016052
10
57.444916740059853
20
-11.909789443016052
0
LWPOLYLINE
5
139
100
AcDbEntity
8
0
100
AcDbPolyline
90
4
70
1
43
0.0
10
51.68675996363163
20
-14.468970894813538
10
54.24594022333622
20
-14.468970894813538
10
54.24594022333622
20
-20.866923332214355
10
51.68675996363163
20
-20.866923332214355
0
LWPOLYLINE
5
140
100
AcDbEntity
8
0
100
AcDbPolyline
90
6
70
1
43
0.0
10
65.108643546700478
20
-18.947537541389465
10
63.573137298226357
20
-21.9097900390625
10
58.390794768929482
20
-11.909789443016052
10
61.141916289925575
20
-11.909789443016052
10
63.573137298226357
20
-16.68906033039093
10
63.752280250191689
20
-16.330774426460266
0
LWPOLYLINE
5
141
100
AcDbEntity
8
0
100
AcDbPolyline
90
4
70
1
43
0.0
10
65.876399055123329
20
-12.159309387207031
10
66.004358306527138
20
-11.909789443016052
10
68.755479827523232
20
-11.909789443016052
10
67.239161506295204
20
-14.840051531791687
0
LWPOLYLINE
5
142
100
AcDbEntity
8
0
100
AcDbPolyline
90
6
70
1
43
0.0
10
67.411910071969032
20
-16.68906033039093
10
69.843131080269814
20
-11.909789443016052
10
72.594247832894325
20
-11.909789443016052
10
67.411910071969032
20
-21.9097900390625
10
62.229567542672157
20
-11.909789443016052
10
64.980684295296669
20
-11.909789443016052
0
SPLINE
5
143
100
AcDbEntity
8
0
100
AcDbSpline
70
0
71
2
72
6
73
3
74
0
42
0.000000001
43
0.0000000001
44
0.0000000001
40
0
40
0
40
0
40
1
40
1
40
1
10
80.142808929085732
20
-14.468970894813538
30
0
10
80.142808929085732
20
-13.829175233840942
30
0
10
79.503012672066689
20
-13.829175233840942
30
0
0
LINE
5
144
100
AcDbEntity
8
0
100
AcDbLine
10
79.503012672066689
20
-13.829175233840944
30
0
11
79.503012672066689
21
-11.909789443016052
31
0
0
SPLINE
5
145
100
AcDbEntity
8
0
100
AcDbSpline
70
0
71
2
72
6
73
3
74
0
42
0.000000001
43
0.0000000001
44
0.0000000001
40
0
40
0
40
0
40
1
40
1
40
1
10
79.503012672066689
20
-11.909789443016052
30
0
10
82.701989188790321
20
-11.909789443016052
30
0
10
82.701989188790321
20
-14.468970894813538
30
0
0
LINE
5
146
100
AcDbEntity
8
0
100
AcDbLine
10
82.701989188790321
20
-14.468970894813538
30
0
11
82.701989188790321
21
-18.30774188041687
31
0
0
SPLINE
5
147
100
AcDbEntity
8
0
100
AcDbSpline
70
0
71
2
72
6
73
3
74
0
42
0.000000001
43
0.0000000001
44
0.0000000001
40
0
40
0
40
0
40
1
40
1
40
1
10
82.701989188790321
20
-18.30774188041687
30
0
10
82.701989188790321
20
-20.866923332214355
30
0
10
79.503012672066689
20
-20.866923332214355
30
0
0
LINE
5
148
100
AcDbEntity
8
0
100
AcDbLine
10
79.503012672066689
20
-20.866923332214355
30
0
11
76.943832412362099
21
-20.866923332214355
31
0
0
LINE
5
149
100
AcDbEntity
8
0
100
AcDbLine
10
76.943832412362099
20
-20.866923332214355
30
0
11
76.943832412362099
21
-18.947537541389465
31
0
0
LINE
5
150
100
AcDbEntity
8
0
100
AcDbLine
10
76.943832412362099
20
-18.947537541389465
30
0
11
79.503012672066689
21
-18.947537541389465
31
0
0
SPLINE
5
151
100
AcDbEntity
8
0
100
AcDbSpline
70
0
71
2
72
6
73
3
74
0
42
0.000000001
43
0.0000000001
44
0.0000000001
40
0
40
0
40
0
40
1
40
1
40
1
10
79.503012672066689
20
-18.947537541389465
30
0
10
80.142808929085732
20
-18.947537541389465
30
0
10
80.142808929085732
20
-18.30774188041687
30
0
0
LINE
5
152
100
AcDbEntity
8
0
100
AcDbLine
10
80.142808929085732
20
-18.30774188041687
30
0
11
80.142808929085732
21
-14.468970894813538
31
0
0
SPLINE
5
153
100
AcDbEntity
8
0
100
AcDbSpline
70
0
71
2
72
6
73
3
74
0
42
0.000000001
43
0.0000000001
44
0.0000000001
40
0
40
0
40
0
40
1
40
1
40
1
10
75.664239898324013
20
-18.30774188041687
30
0
10
75.664239898324013
20
-18.947537541389465
30
0
10
76.304036155343056
20
-18.947537541389465
30
0
0
LINE
5
154
100
AcDbEntity
8
0
100
AcDbLine
10
76.304036155343056
20
-18.947537541389462
30
0
11
76.304036155343056
21
-20.866923332214355
31
0
0
SPLINE
5
155
100
AcDbEntity
8
0
100
AcDbSpline
70
0
71
2
72
6
73
3
74
0
42
0.000000001
43
0.0000000001
44
0.0000000001
40
0
40
0
40
0
40
1
40
1
40
1
10
76.304036155343056
20
-20.866923332214355
30
0
10
73.105059638619423
20
-20.866923332214355
30
0
10
73.105059638619423
20
-18.30774188041687
30
0
0
LINE
5
156
100
AcDbEntity
8
0
100
AcDbLine
10
73.105059638619423
20
-18.30774188041687
30
0
11
73.105059638619423
21
-14.468970894813538
31
0
0
SPLINE
5
157
100
AcDbEntity
8
0
100
AcDbSpline
70
0
71
2
72
6
73
3
74
0
42
0.000000001
43
0.0000000001
44
0.0000000001
40
0
40
0
40
0
40
1
40
1
40
1
10
73.105059638619423
20
-14.468970894813538
30
0
10
73.105059638619423
20
-11.909789443016052
30
0
10
76.304036155343056
20
-11.909789443016052
30
0
0
LINE
5
158
100
AcDbEntity
8
0
100
AcDbLine
10
76.304036155343056
20
-11.909789443016052
30
0
11
78.863216415047646
21
-11.909789443016052
31
0
0
LINE
5
159
100
AcDbEntity
8
0
100
AcDbLine
10
78.863216415047646
20
-11.909789443016052
30
0
11
78.863216415047646
21
-13.829175233840942
31
0
0
LINE
5
160
100
AcDbEntity
8
0
100
AcDbLine
10
78.863216415047646
20
-13.829175233840942
30
0
11
76.304036155343056
21
-13.829175233840942
31
0
0
SPLINE
5
161
100
AcDbEntity
8
0
100
AcDbSpline
70
0
71
2
72
6
73
3
74
0
42
0.000000001
43
0.0000000001
44
0.0000000001
40
0
40
0
40
0
40
1
40
1
40
1
10
76.304036155343056
20
-13.829175233840942
30
0
10
75.664239898324013
20
-13.829175233840942
30
0
10
75.664239898324013
20
-14.468970894813538
30
0
0
LINE
5
162
100
AcDbEntity
8
0
100
AcDbLine
10
75.664239898324013
20
-14.468970894813538
30
0
11
75.664239898324013
21
-18.30774188041687
31
0
0
LWPOLYLINE
5
163
100
AcDbEntity
8
0
100
AcDbPolyline
90
4
70
1
43
0.0
10
96.928983703255653
20
-13.829175233840942
10
87.971850410103798
20
-13.829175233840942
10
86.692257896065712
20
-11.909789443016052
10
96.928983703255653
20
-11.909789443016052
0
LWPOLYLINE
5
164
100
AcDbEntity
8
0
100
AcDbPolyline
90
4
70
1
43
0.0
10
91.170822158455849
20
-14.468970894813538
10
93.730007186532021
20
-14.468970894813538
10
93.730007186532021
20
-20.866923332214355
10
91.170822158455849
20
-20.866923332214355
0
LWPOLYLINE
5
165
100
AcDbEntity
8
0
100
AcDbPolyline
90
4
70
1
43
0.0
10
98.578630462288857
20
-11.909789443016052
10
101.13781549036503
20
-11.909789443016052
10
101.13781549036503
20
-20.866923332214355
10
98.578630462288857
20
-20.866923332214355
0
LWPOLYLINE
5
166
100
AcDbEntity
8
0
100
AcDbPolyline
90
8
70
1
43
0.0
10
105.61637498438358
20
-17.667946815490723
10
103.05719949305058
20
-17.667946815490723
10
101.77760697901249
20
-15.748561024665833
10
105.61637498438358
20
-15.748561024665833
10
105.61637498438358
20
-11.909789443016052
10
108.17556001245975
20
-11.909789443016052
10
108.17556001245975
20
-20.866923332214355
10
105.61637498438358
20
-20.866923332214355
0
LWPOLYLINE
5
167
100
AcDbEntity
8
0
100
AcDbPolyline
90
4
70
1
43
0.0
10
112.38439179956913
20
-20.866923332214355
10
109.82521630823612
20
-20.866923332214355
10
109.82521630823612
20
-14.468970894813538
10
112.38439179956913
20
-14.468970894813538
0
LINE
5
168
100
AcDbEntity
8
0
100
AcDbLine
10
116.22316934168339
20
-13.829175233840942
30
0
11
109.82521630823612
21
-13.829175233840942
31
0
0
LINE
5
169
100
AcDbEntity
8
0
100
AcDbLine
10
109.82521630823612
20
-11.9097900390625
30
0
11
116.22316934168339
21
-11.909789443016052
31
0
0
SPLINE
5
170
100
AcDbEntity
8
0
100
AcDbSpline
70
0
71
2
72
6
73
3
74
0
42
0.000000001
43
0.0000000001
44
0.0000000001
40
0
40
0
40
0
40
1
40
1
40
1
10
116.22316934168339
20
-11.909789443016052
30
0
10
119.42214585840702
20
-11.909789443016052
30
0
10
119.42214585840702
20
-14.468970894813538
30
0
0
LINE
5
171
100
AcDbEntity
8
0
100
AcDbLine
10
119.42214585840702
20
-14.468970894813538
30
0
11
119.42214585840702
21
-15.108765959739685
31
0
0
SPLINE
5
172
100
AcDbEntity
8
0
100
AcDbSpline
70
0
71
2
72
6
73
3
74
0
42
0.000000001
43
0.0000000001
44
0.0000000001
40
0
40
0
40
0
40
1
40
1
40
1
10
119.42214585840702
20
-15.108765959739685
30
0
10
119.42214585840702
20
-17.162508964538574
30
0
10
117.36199952661991
20
-17.565579414367676
30
0
0
LINE
5
173
100
AcDbEntity
8
0
100
AcDbLine
10
117.36199952661991
20
-17.565579414367676
30
0
11
119.42214585840702
21
-20.866923332214355
31
0
0
LINE
5
174
100
AcDbEntity
8
0
100
AcDbLine
10
119.42214585840702
20
-20.866923332214355
30
0
11
116.22316934168339
21
-20.866923332214355
31
0
0
LINE
5
175
100
AcDbEntity
8
0
100
AcDbLine
10
116.22316934168339
20
-20.866923332214355
30
0
11
113.02419282495975
21
-15.748561024665833
31
0
0
LINE
5
176
100
AcDbEntity
8
0
100
AcDbLine
10
113.02419282495975
20
-15.748561024665833
30
0
11
116.22316934168339
21
-15.748561024665833
31
0
0
SPLINE
5
177
100
AcDbEntity
8
0
100
AcDbSpline
70
0
71
2
72
6
73
3
74
0
42
0.000000001
43
0.0000000001
44
0.0000000001
40
0
40
0
40
0
40
1
40
1
40
1
10
116.22316934168339
20
-15.748561024665833
30
0
10
116.86296083033085
20
-15.748561024665833
30
0
10
116.86296083033085
20
-15.108765959739685
30
0
0
LINE
5
178
100
AcDbEntity
8
0
100
AcDbLine
10
116.86296083033085
20
-15.108765959739685
30
0
11
116.86296083033085
21
-14.468970894813538
31
0
0
SPLINE
5
179
100
AcDbEntity
8
0
100
AcDbSpline
70
0
71
2
72
6
73
3
74
0
42
0.000000001
43
0.0000000001
44
0.0000000001
40
0
40
0
40
0
40
1
40
1
40
1
10
116.86296083033085
20
-14.468970894813538
30
0
10
116.86296083033085
20
-13.829175233840942
30
0
10
116.22316934168339
20
-13.829175233840942
30
0
0
LINE
5
180
100
AcDbEntity
8
0
100
AcDbLine
10
130.0289211422205
20
-13.829175233840942
30
0
11
121.07179261744022
21
-13.829175233840942
31
0
0
LINE
5
181
100
AcDbEntity
8
0
100
AcDbLine
10
121.07179261744022
20
-11.909790039062502
30
0
11
130.0289211422205
21
-11.909789443016052
31
0
0
LINE
5
182
100
AcDbEntity
8
0
100
AcDbLine
10
130.0289211422205
20
-11.909789443016052
30
0
11
130.0289211422205
21
-13.829175233840942
31
0
0
LWPOLYLINE
5
183
100
AcDbEntity
8
0
100
AcDbPolyline
90
6
70
1
43
0.0
10
121.07179261744022
20
-14.468970894813538
10
123.63096810877323
20
-14.468970894813538
10
123.63096810877323
20
-18.947537541389465
10
130.0289211422205
20
-18.947537541389465
10
130.0289211422205
20
-20.866923332214355
10
121.07179261744022
20
-20.866923332214355
0
LWPOLYLINE
5
184
100
AcDbEntity
8
0
100
AcDbPolyline
90
4
70
1
43
0.0
10
130.0289211422205
20
-17.667946815490723
10
126.1901531368494
20
-17.667946815490723
10
124.27076913416386
20
-15.748561024665833
10
130.0289211422205
20
-15.748561024665833
0
LINE
5
185
100
AcDbEntity
8
0
100
AcDbLine
10
140.63569642603397
20
-13.829175233840942
30
0
11
131.6785679012537
21
-13.829175233840942
31
0
0
LINE
5
186
100
AcDbEntity
8
0
100
AcDbLine
10
131.6785679012537
20
-13.829175233840942
30
0
11
131.03877283632755
21
-12.869482636451721
31
0
0
LINE
5
187
100
AcDbEntity
8
0
100
AcDbLine
10
131.6785679012537
20
-11.909790039062502
30
0
11
140.63569642603397
21
-11.909789443016052
31
0
0
LINE
5
188
100
AcDbEntity
8
0
100
AcDbLine
10
140.63569642603397
20
-11.909789443016052
30
0
11
140.63569642603397
21
-13.829175233840942
31
0
0
LWPOLYLINE
5
189
100
AcDbEntity
8
0
100
AcDbPolyline
90
6
70
1
43
0.0
10
131.6785679012537
20
-14.468970894813538
10
134.23774339258671
20
-14.468970894813538
10
134.23774339258671
20
-18.947537541389465
10
140.63569642603397
20
-18.947537541389465
10
140.63569642603397
20
-20.866923332214355
10
131.6785679012537
20
-20.866923332214355
0
LWPOLYLINE
5
190
100
AcDbEntity
8
0
100
AcDbPolyline
90
4
70
1
43
0.0
10
140.63569642603397
20
-17.667946815490723
10
136.79692842066288
20
-17.667946815490723
10
134.87754441797733
20
-15.748561024665833
10
140.63569642603397
20
-15.748561024665833
0
LWPOLYLINE
5
191
100
AcDbEntity
8
0
100
AcDbPolyline
90
4
70
1
43
0.0
10
148.46474267542362
20
-20.866923332214355
10
145.90556718409061
20
-20.866923332214355
10
145.90556718409061
20
-14.468970894813538
10
148.46474267542362
20
-14.468970894813538
0
LWPOLYLINE
5
192
100
AcDbEntity
8
0
100
AcDbPolyline
90
4
70
1
43
0.0
10
154.86269570887089
20
-17.667946815490723
10
151.02392770349979
20
-17.667946815490723
10
149.10454370081425
20
-15.748561024665833
10
154.86269570887089
20
-15.748561024665833
0
LWPOLYLINE
5
193
100
AcDbEntity
8
0
100
AcDbPolyline
90
4
70
1
43
0.0
10
154.86269570887089
20
-13.829175233840942
10
145.90556718409061
20
-13.829175233840942
10
144.62597467005253
20
-11.909789443016052
10
154.86269570887089
20
-11.909789443016052
0
SPLINE
5
194
100
AcDbEntity
8
0
100
AcDbSpline
70
0
71
2
72
6
73
3
74
0
42
0.000000001
43
0.0000000001
44
0.0000000001
40
0
40
0
40
0
40
1
40
1
40
1
10
163.55008698999882
20
-14.468970894813538
30
0
10
163.55008698999882
20
-13.829175233840942
30
0
10
162.91029550135136
20
-13.829175233840942
30
0
0
LINE
5
195
100
AcDbEntity
8
0
100
AcDbLine
10
162.91029550135136
20
-13.829175233840944
30
0
11
162.91029550135136
21
-11.909789443016052
31
0
0
SPLINE
5
196
100
AcDbEntity
8
0
100
AcDbSpline
70
0
71
2
72
6
73
3
74
0
42
0.000000001
43
0.0000000001
44
0.0000000001
40
0
40
0
40
0
40
1
40
1
40
1
10
162.91029550135136
20
-11.909789443016052
30
0
10
166.10927201807499
20
-11.909789443016052
30
0
10
166.10927201807499
20
-14.468970894813538
30
0
0
LINE
5
197
100
AcDbEntity
8
0
100
AcDbLine
10
166.10927201807499
20
-14.468970894813538
30
0
11
166.10927201807499
21
-18.30774188041687
31
0
0
SPLINE
5
198
100
AcDbEntity
8
0
100
AcDbSpline
70
0
71
2
72
6
73
3
74
0
42
0.000000001
43
0.0000000001
44
0.0000000001
40
0
40
0
40
0
40
1
40
1
40
1
10
166.10927201807499
20
-18.30774188041687
30
0
10
166.10927201807499
20
-20.866923332214355
30
0
10
162.91029550135136
20
-20.866923332214355
30
0
0
LINE
5
199
100
AcDbEntity
8
0
100
AcDbLine
10
162.91029550135136
20
-20.866923332214355
30
0
11
160.35111047327518
21
-20.866923332214355
31
0
0
LINE
5
200
100
AcDbEntity
8
0
100
AcDbLine
10
160.35111047327518
20
-20.866923332214355
30
0
11
160.35111047327518
21
-18.947537541389465
31
0
0
LINE
5
201
100
AcDbEntity
8
0
100
AcDbLine
10
160.35111047327518
20
-18.947537541389465
30
0
11
162.91029550135136
21
-18.947537541389465
31
0
0
SPLINE
5
202
100
AcDbEntity
8
0
100
AcDbSpline
70
0
71
2
72
6
73
3
74
0
42
0.000000001
43
0.0000000001
44
0.0000000001
40
0
40
0
40
0
40
1
40
1
40
1
10
162.91029550135136
20
-18.947537541389465
30
0
10
163.55008698999882
20
-18.947537541389465
30
0
10
163.55008698999882
20
-18.30774188041687
30
0
0
LINE
5
203
100
AcDbEntity
8
0
100
AcDbLine
10
163.55008698999882
20
-18.30774188041687
30
0
11
163.55008698999882
21
-14.468970894813538
31
0
0
SPLINE
5
204
100
AcDbEntity
8
0
100
AcDbSpline
70
0
71
2
72
6
73
3
74
0
42
0.000000001
43
0.0000000001
44
0.0000000001
40
0
40
0
40
0
40
1
40
1
40
1
10
159.07152749598026
20
-18.30774188041687
30
0
10
159.07152749598026
20
-18.947537541389465
30
0
10
159.71131898462772
20
-18.947537541389465
30
0
0
LINE
5
205
100
AcDbEntity
8
0
100
AcDbLine
10
159.71131898462772
20
-18.947537541389462
30
0
11
159.71131898462772
21
-20.866923332214355
31
0
0
SPLINE
5
206
100
AcDbEntity
8
0
100
AcDbSpline
70
0
71
2
72
6
73
3
74
0
42
0.000000001
43
0.0000000001
44
0.0000000001
40
0
40
0
40
0
40
1
40
1
40
1
10
159.71131898462772
20
-20.866923332214355
30
0
10
156.51234246790409
20
-20.866923332214355
30
0
10
156.51234246790409
20
-18.30774188041687
30
0
0
LINE
5
207
100
AcDbEntity
8
0
100
AcDbLine
10
156.51234246790409
20
-18.30774188041687
30
0
11
156.51234246790409
21
-14.468970894813538
31
0
0
SPLINE
5
208
100
AcDbEntity
8
0
100
AcDbSpline
70
0
71
2
72
6
73
3
74
0
42
0.000000001
43
0.0000000001
44
0.0000000001
40
0
40
0
40
0
40
1
40
1
40
1
10
156.51234246790409
20
-14.468970894813538
30
0
10
156.51234246790409
20
-11.909789443016052
30
0
10
159.71131898462772
20
-11.909789443016052
30
0
0
LINE
5
209
100
AcDbEntity
8
0
100
AcDbLine
10
159.71131898462772
20
-11.909789443016052
30
0
11
162.2705040127039
21
-11.909789443016052
31
0
0
LINE
5
210
100
AcDbEntity
8
0
100
AcDbLine
10
162.2705040127039
20
-11.909789443016052
30
0
11
162.2705040127039
21
-13.829175233840942
31
0
0
LINE
5
211
100
AcDbEntity
8
0
100
AcDbLine
10
162.2705040127039
20
-13.829175233840942
30
0
11
159.71131898462772
21
-13.829175233840942
31
0
0
SPLINE
5
212
100
AcDbEntity
8
0
100
AcDbSpline
70
0
71
2
72
6
73
3
74
0
42
0.000000001
43
0.0000000001
44
0.0000000001
40
0
40
0
40
0
40
1
40
1
40
1
10
159.71131898462772
20
-13.829175233840942
30
0
10
159.07152749598026
20
-13.829175233840942
30
0
10
159.07152749598026
20
-14.468970894813538
30
0
0
LINE
5
213
100
AcDbEntity
8
0
100
AcDbLine
10
159.07152749598026
20
-14.468970894813538
30
0
11
159.07152749598026
21
-18.30774188041687
31
0
0
LINE
5
214
100
AcDbEntity
8
0
100
AcDbLine
10
174.79666329920292
20
-18.30774188041687
30
0
11
174.79666329920292
21
-11.909789443016052
31
0
0
LINE
5
215
100
AcDbEntity
8
0
100
AcDbLine
10
174.79666329920292
20
-11.909789443016052
30
0
11
177.35584832727909
21
-11.909789443016052
31
0
0
LINE
5
216
100
AcDbEntity
8
0
100
AcDbLine
10
177.35584832727909
20
-11.909789443016052
30
0
11
177.35584832727909
21
-18.30774188041687
31
0
0
SPLINE
5
217
100
AcDbEntity
8
0
100
AcDbSpline
70
0
71
2
72
6
73
3
74
0
42
0.000000001
43
0.0000000001
44
0.0000000001
40
0
40
0
40
0
40
1
40
1
40
1
10
177.35584832727909
20
-18.30774188041687
30
0
10
177.35584832727909
20
-20.866923332214355
30
0
10
174.15686227381229
20
-20.866923332214355
30
0
0
LINE
5
218
100
AcDbEntity
8
0
100
AcDbLine
10
174.15686227381229
20
-20.866923332214355
30
0
11
171.59769631922245
21
-20.866923332214355
31
0
0
LINE
5
219
100
AcDbEntity
8
0
100
AcDbLine
10
171.59769631922245
20
-20.866923332214355
30
0
11
171.59769631922245
21
-18.947537541389465
31
0
0
LINE
5
220
100
AcDbEntity
8
0
100
AcDbLine
10
171.59769631922245
20
-18.947537541389465
30
0
11
174.15686227381229
21
-18.947537541389465
31
0
0
SPLINE
5
221
100
AcDbEntity
8
0
100
AcDbSpline
70
0
71
2
72
6
73
3
74
0
42
0.000000001
43
0.0000000001
44
0.0000000001
40
0
40
0
40
0
40
1
40
1
40
1
10
174.15686227381229
20
-18.947537541389465
30
0
10
174.79666329920292
20
-18.947537541389465
30
0
10
174.79666329920292
20
-18.30774188041687
30
0
0
LINE
5
222
100
AcDbEntity
8
0
100
AcDbLine
10
167.75891877710819
20
-18.30774188041687
30
0
11
167.75891877710819
21
-11.909789443016052
31
0
0
LINE
5
223
100
AcDbEntity
8
0
100
AcDbLine
10
167.75891877710819
20
-11.909789443016052
30
0
11
170.31811334192753
21
-11.909789443016052
31
0
0
LINE
5
224
100
AcDbEntity
8
0
100
AcDbLine
10
170.31811334192753
20
-11.909789443016052
30
0
11
170.31811334192753
21
-18.30774188041687
31
0
0
SPLINE
5
225
100
AcDbEntity
8
0
100
AcDbSpline
70
0
71
2
72
6
73
3
74
0
42
0.000000001
43
0.0000000001
44
0.0000000001
40
0
40
0
40
0
40
1
40
1
40
1
10
170.31811334192753
20
-18.30774188041687
30
0
10
170.31811334192753
20
-18.947537541389465
30
0
10
170.95789529383183
20
-18.947537541389465
30
0
0
LINE
5
226
100
AcDbEntity
8
0
100
AcDbLine
10
170.95789529383183
20
-18.947537541389462
30
0
11
170.95789529383183
21
-20.866923332214355
31
0
0
SPLINE
5
227
100
AcDbEntity
8
0
100
AcDbSpline
70
0
71
2
72
6
73
3
74
0
42
0.000000001
43
0.0000000001
44
0.0000000001
40
0
40
0
40
0
40
1
40
1
40
1
10
170.95789529383183
20
-20.866923332214355
30
0
10
167.75891877710819
20
-20.866923332214355
30
0
10
167.75891877710819
20
-18.30774188041687
30
0
0
LWPOLYLINE
5
228
100
AcDbEntity
8
0
100
AcDbPolyline
90
4
70
1
43
0.0
10
181.56466104090214
20
-20.866923332214355
10
179.00547601282597
20
-20.866923332214355
10
179.00547601282597
20
-14.468970894813538
10
181.56466104090214
20
-14.468970894813538
0
LINE
5
229
100
AcDbEntity
8
0
100
AcDbLine
10
185.40342904627323
20
-13.829175233840942
30
0
11
179.00547601282597
21
-13.829175233840942
31
0
0
LINE
5
230
100
AcDbEntity
8
0
100
AcDbLine
10
179.00547601282597
20
-11.9097900390625
30
0
11
185.40342904627323
21
-11.909789443016052
31
0
0
SPLINE
5
231
100
AcDbEntity
8
0
100
AcDbSpline
70
0
71
2
72
6
73
3
74
0
42
0.000000001
43
0.0000000001
44
0.0000000001
40
0
40
0
40
0
40
1
40
1
40
1
10
185.40342904627323
20
-11.909789443016052
30
0
10
188.60241509974003
20
-11.909789443016052
30
0
10
188.60241509974003
20
-14.468970894813538
30
0
0
LINE
5
232
100
AcDbEntity
8
0
100
AcDbLine
10
188.60241509974003
20
-14.468970894813538
30
0
11
188.60241509974003
21
-15.108765959739685
31
0
0
SPLINE
5
233
100
AcDbEntity
8
0
100
AcDbSpline
70
0
71
2
72
6
73
3
74
0
42
0.000000001
43
0.0000000001
44
0.0000000001
40
0
40
0
40
0
40
1
40
1
40
1
10
188.60241509974003
20
-15.108765959739685
30
0
10
188.60241509974003
20
-17.162508964538574
30
0
10
186.54226876795292
20
-17.565579414367676
30
0
0
LINE
5
234
100
AcDbEntity
8
0
100
AcDbLine
10
186.54226876795292
20
-17.565579414367676
30
0
11
188.60241509974003
21
-20.866923332214355
31
0
0
LINE
5
235
100
AcDbEntity
8
0
100
AcDbLine
10
188.60241509974003
20
-20.866923332214355
30
0
11
185.40342904627323
21
-20.866923332214355
31
0
0
LINE
5
236
100
AcDbEntity
8
0
100
AcDbLine
10
185.40342904627323
20
-20.866923332214355
30
0
11
182.20446206629276
21
-15.748561024665833
31
0
0
LINE
5
237
100
AcDbEntity
8
0
100
AcDbLine
10
182.20446206629276
20
-15.748561024665833
30
0
11
185.40342904627323
21
-15.748561024665833
31
0
0
SPLINE
5
238
100
AcDbEntity
8
0
100
AcDbSpline
70
0
71
2
72
6
73
3
74
0
42
0.000000001
43
0.0000000001
44
0.0000000001
40
0
40
0
40
0
40
1
40
1
40
1
10
185.40342904627323
20
-15.748561024665833
30
0
10
186.04323007166386
20
-15.748561024665833
30
0
10
186.04323007166386
20
-15.108765959739685
30
0
0
LINE
5
239
100
AcDbEntity
8
0
100
AcDbLine
10
186.04323007166386
20
-15.108765959739685
30
0
11
186.04323007166386
21
-14.468970894813538
31
0
0
SPLINE
5
240
100
AcDbEntity
8
0
100
AcDbSpline
70
0
71
2
72
6
73
3
74
0
42
0.000000001
43
0.0000000001
44
0.0000000001
40
0
40
0
40
0
40
1
40
1
40
1
10
186.04323007166386
20
-14.468970894813538
30
0
10
186.04323007166386
20
-13.829175233840942
30
0
10
185.40342904627323
20
-13.829175233840942
30
0
0
LWPOLYLINE
5
241
100
AcDbEntity
8
0
100
AcDbPolyline
90
4
70
1
43
0.0
10
15.735393539071083
20
-34.520153999328613
10
13.176212385296822
20
-34.520153999328613
10
13.176212385296822
20
-28.122200965881348
10
15.735393539071083
20
-28.122200965881348
0
LWPOLYLINE
5
242
100
AcDbEntity
8
0
100
AcDbPolyline
90
4
70
1
43
0.0
10
22.133346572518349
20
-31.32117748260498
10
18.294574394822121
20
-31.32117748260498
10
16.375188603997231
20
-29.401791095733643
10
22.133346572518349
20
-29.401791095733643
0
LWPOLYLINE
5
243
100
AcDbEntity
8
0
100
AcDbPolyline
90
4
70
1
43
0.0
10
22.133346572518349
20
-27.4824059009552
10
13.176212385296822
20
-27.4824059009552
10
11.896621659398079
20
-25.563020706176758
10
22.133346572518349
20
-25.563020706176758
0
LWPOLYLINE
5
244
100
AcDbEntity
8
0
100
AcDbPolyline
90
4
70
1
43
0.0
10
23.782993331551552
20
-25.563020706176758
10
26.342174783349037
20
-25.563020706176758
10
26.342174783349037
20
-34.520153999328613
10
23.782993331551552
20
-34.520153999328613
0
LWPOLYLINE
5
245
100
AcDbEntity
8
0
100
AcDbPolyline
90
4
70
1
43
0.0
10
33.794766440987587
20
-33.010237216949463
10
32.470389381051064
20
-35.563020706176758
10
27.288046851754189
20
-25.563020706176758
10
30.039168372750282
20
-25.563020706176758
0
LWPOLYLINE
5
246
100
AcDbEntity
8
0
100
AcDbPolyline
90
4
70
1
43
0.0
10
32.847867980599403
20
-29.606525897979736
10
34.901610389351845
20
-25.563020706176758
10
37.652731910347939
20
-25.563020706176758
10
34.185040965676308
20
-32.255277633666992
0
LWPOLYLINE
5
247
100
AcDbEntity
8
0
100
AcDbPolyline
90
5
70
1
43
0.0
10
47.555733695626259
20
-27.4824059009552
10
38.598600402474403
20
-27.4824059009552
10
37.958805337548256
20
-26.522713303565979
10
38.598600402474403
20
-25.563020706176758
10
47.555733695626259
20
-25.563020706176758
0
LWPOLYLINE
5
248
100
AcDbEntity
8
0
100
AcDbPolyline
90
6
70
1
43
0.0
10
38.598600402474403
20
-28.122200965881348
10
41.157780662178993
20
-28.122200965881348
10
41.157780662178993
20
-32.600767612457275
10
47.555733695626259
20
-32.600767612457275
10
47.555733695626259
20
-34.520153999328613
10
38.598600402474403
20
-34.520153999328613
0
LWPOLYLINE
5
249
100
AcDbEntity
8
0
100
AcDbPolyline
90
4
70
1
43
0.0
10
47.555733695626259
20
-31.32117748260498
10
43.716963306069374
20
-31.32117748260498
10
41.797576919198036
20
-29.401791095733643
10
47.555733695626259
20
-29.401791095733643
0
LINE
5
250
100
AcDbEntity
8
0
100
AcDbLine
10
56.02457620203495
20
-25.563020706176758
30
0
11
62.422529235482216
21
-25.563020706176758
31
0
0
LINE
5
251
100
AcDbEntity
8
0
100
AcDbLine
10
62.422529235482216
20
-25.563020706176758
30
0
11
62.422529235482216
21
-27.4824059009552
31
0
0
LINE
5
252
100
AcDbEntity
8
0
100
AcDbLine
10
62.422529235482216
20
-27.4824059009552
30
0
11
56.02457620203495
21
-27.4824059009552
31
0
0
SPLINE
5
253
100
AcDbEntity
8
0
100
AcDbSpline
70
0
71
2
72
6
73
3
74
0
42
0.000000001
43
0.0000000001
44
0.0000000001
40
0
40
0
40
0
40
1
40
1
40
1
10
56.02457620203495
20
-27.4824059009552
30
0
10
55.384779945015907
20
-27.4824059009552
30
0
10
55.384779945015907
20
-28.122200965881348
30
0
0
LINE
5
254
100
AcDbEntity
8
0
100
AcDbLine
10
55.384779945015907
20
-28.122200965881348
30
0
11
55.384779945015907
21
-28.761997222900391
31
0
0
SPLINE
5
255
100
AcDbEntity
8
0
100
AcDbSpline
70
0
71
2
72
6
73
3
74
0
42
0.000000001
43
0.0000000001
44
0.0000000001
40
0
40
0
40
0
40
1
40
1
40
1
10
55.384779945015907
20
-28.761997222900391
30
0
10
55.384779945015907
20
-29.401791095733643
30
0
10
56.02457620203495
20
-29.401791095733643
30
0
0
LINE
5
256
100
AcDbEntity
8
0
100
AcDbLine
10
56.02457620203495
20
-29.401791095733643
30
0
11
57.304168716073036
21
-29.401791095733643
31
0
0
LINE
5
257
100
AcDbEntity
8
0
100
AcDbLine
10
57.304168716073036
20
-29.401791095733643
30
0
11
57.304168716073036
21
-31.32117748260498
31
0
0
LINE
5
258
100
AcDbEntity
8
0
100
AcDbLine
10
57.304168716073036
20
-31.32117748260498
30
0
11
56.02457620203495
21
-31.32117748260498
31
0
0
SPLINE
5
259
100
AcDbEntity
8
0
100
AcDbSpline
70
0
71
2
72
6
73
3
74
0
42
0.000000001
43
0.0000000001
44
0.0000000001
40
0
40
0
40
0
40
1
40
1
40
1
10
56.02457620203495
20
-31.32117748260498
30
0
10
52.825599685311317
20
-31.32117748260498
30
0
10
52.825599685311317
20
-28.761997222900391
30
0
0
LINE
5
260
100
AcDbEntity
8
0
100
AcDbLine
10
52.825599685311317
20
-28.761997222900391
30
0
11
52.825599685311317
21
-28.122200965881348
31
0
0
SPLINE
5
261
100
AcDbEntity
8
0
100
AcDbSpline
70
0
71
2
72
6
73
3
74
0
42
0.000000001
43
0.0000000001
44
0.0000000001
40
0
40
0
40
0
40
1
40
1
40
1
10
52.825599685311317
20
-28.122200965881348
30
0
10
52.825599685311317
20
-25.563020706176758
30
0
10
56.02457620203495
20
-25.563020706176758
30
0
0
LINE
5
262
100
AcDbEntity
8
0
100
AcDbLine
10
59.223552718758583
20
-34.520153999328613
30
0
11
52.825599685311317
21
-34.520153999328613
31
0
0
LINE
5
263
100
AcDbEntity
8
0
100
AcDbLine
10
52.825599685311317
20
-34.520153999328613
30
0
11
52.825599685311317
21
-32.600767612457275
31
0
0
LINE
5
264
100
AcDbEntity
8
0
100
AcDbLine
10
52.825599685311317
20
-32.600767612457275
30
0
11
59.223552718758583
21
-32.600767612457275
31
0
0
SPLINE
5
265
100
AcDbEntity
8
0
100
AcDbSpline
70
0
71
2
72
6
73
3
74
0
42
0.000000001
43
0.0000000001
44
0.0000000001
40
0
40
0
40
0
40
1
40
1
40
1
10
59.223552718758583
20
-32.600767612457275
30
0
10
59.863348975777626
20
-32.600767612457275
30
0
10
59.863348975777626
20
-31.960973739624023
30
0
0
SPLINE
5
266
100
AcDbEntity
8
0
100
AcDbSpline
70
0
71
2
72
6
73
3
74
0
42
0.000000001
43
0.0000000001
44
0.0000000001
40
0
40
0
40
0
40
1
40
1
40
1
10
59.863348975777626
20
-31.960973739624023
30
0
10
59.863348975777626
20
-31.32117748260498
30
0
10
59.223552718758583
20
-31.32117748260498
30
0
0
LINE
5
267
100
AcDbEntity
8
0
100
AcDbLine
10
59.223552718758583
20
-31.32117748260498
30
0
11
57.943960204720497
21
-31.32117748260498
31
0
0
LINE
5
268
100
AcDbEntity
8
0
100
AcDbLine
10
57.943960204720497
20
-31.32117748260498
30
0
11
57.943960204720497
21
-29.401791095733643
31
0
0
LINE
5
269
100
AcDbEntity
8
0
100
AcDbLine
10
57.943960204720497
20
-29.401791095733643
30
0
11
59.223552718758583
21
-29.401791095733643
31
0
0
SPLINE
5
270
100
AcDbEntity
8
0
100
AcDbSpline
70
0
71
2
72
6
73
3
74
0
42
0.000000001
43
0.0000000001
44
0.0000000001
40
0
40
0
40
0
40
1
40
1
40
1
10
59.223552718758583
20
-29.401791095733643
30
0
10
62.422529235482216
20
-29.401791095733643
30
0
10
62.422529235482216
20
-31.960973739624023
30
0
0
SPLINE
5
271
100
AcDbEntity
8
0
100
AcDbSpline
70
0
71
2
72
6
73
3
74
0
42
0.000000001
43
0.0000000001
44
0.0000000001
40
0
40
0
40
0
40
1
40
1
40
1
10
62.422529235482216
20
-31.960973739624023
30
0
10
62.422529235482216
20
-34.520153999328613
30
0
10
59.223552718758583
20
-34.520153999328613
30
0
0
LWPOLYLINE
5
272
100
AcDbEntity
8
0
100
AcDbPolyline
90
4
70
1
43
0.0
10
64.072175994515419
20
-25.563020706176758
10
66.631356254220009
20
-25.563020706176758
10
66.631356254220009
20
-34.520153999328613
10
64.072175994515419
20
-34.520153999328613
0
LWPOLYLINE
5
273
100
AcDbEntity
8
0
100
AcDbPolyline
90
4
70
1
43
0.0
10
78.108259215950966
20
-34.520153999328613
10
74.781323447823524
20
-34.520153999328613
10
67.743574157357216
20
-25.563020706176758
10
71.070509925484657
20
-25.563020706176758
0
LWPOLYLINE
5
274
100
AcDbEntity
8
0
100
AcDbPolyline
90
4
70
1
43
0.0
10
73.341785445809364
20
-27.392834424972534
10
74.781323447823524
20
-25.563020706176758
10
78.108259215950966
20
-25.563020706176758
10
75.005250945687294
20
-29.510557651519775
0
LWPOLYLINE
5
275
100
AcDbEntity
8
0
100
AcDbPolyline
90
4
70
1
43
0.0
10
72.510047927498817
20
-32.690339088439941
10
71.070509925484657
20
-34.520153999328613
10
67.743574157357216
20
-34.520153999328613
10
70.846582427620888
20
-30.572617053985596
0
LINE
5
276
100
AcDbEntity
8
0
100
AcDbLine
10
86.193223968148232
20
-25.563020706176758
30
0
11
92.591177001595497
21
-25.563020706176758
31
0
0
LINE
5
277
100
AcDbEntity
8
0
100
AcDbLine
10
92.591177001595497
20
-25.563020706176758
30
0
11
92.591177001595497
21
-27.4824059009552
31
0
0
LINE
5
278
100
AcDbEntity
8
0
100
AcDbLine
10
92.591177001595497
20
-27.4824059009552
30
0
11
86.193223968148232
21
-27.4824059009552
31
0
0
SPLINE
5
279
100
AcDbEntity
8
0
100
AcDbSpline
70
0
71
2
72
6
73
3
74
0
42
0.000000001
43
0.0000000001
44
0.0000000001
40
0
40
0
40
0
40
1
40
1
40
1
10
86.193223968148232
20
-27.4824059009552
30
0
10
85.553427711129189
20
-27.4824059009552
30
0
10
85.553427711129189
20
-28.122200965881348
30
0
0
LINE
5
280
100
AcDbEntity
8
0
100
AcDbLine
10
85.553427711129189
20
-28.122200965881348
30
0
11
85.553427711129189
21
-28.761997222900391
31
0
0
SPLINE
5
281
100
AcDbEntity
8
0
100
AcDbSpline
70
0
71
2
72
6
73
3
74
0
42
0.000000001
43
0.0000000001
44
0.0000000001
40
0
40
0
40
0
40
1
40
1
40
1
10
85.553427711129189
20
-28.761997222900391
30
0
10
85.553427711129189
20
-29.401791095733643
30
0
10
86.193223968148232
20
-29.401791095733643
30
0
0
LINE
5
282
100
AcDbEntity
8
0
100
AcDbLine
10
86.193223968148232
20
-29.401791095733643
30
0
11
87.472816482186317
21
-29.401791095733643
31
0
0
LINE
5
283
100
AcDbEntity
8
0
100
AcDbLine
10
87.472816482186317
20
-29.401791095733643
30
0
11
87.472816482186317
21
-31.32117748260498
31
0
0
LINE
5
284
100
AcDbEntity
8
0
100
AcDbLine
10
87.472816482186317
20
-31.32117748260498
30
0
11
86.193223968148232
21
-31.32117748260498
31
0
0
SPLINE
5
285
100
AcDbEntity
8
0
100
AcDbSpline
70
0
71
2
72
6
73
3
74
0
42
0.000000001
43
0.0000000001
44
0.0000000001
40
0
40
0
40
0
40
1
40
1
40
1
10
86.193223968148232
20
-31.32117748260498
30
0
10
82.994247451424599
20
-31.32117748260498
30
0
10
82.994247451424599
20
-28.761997222900391
30
0
0
LINE
5
286
100
AcDbEntity
8
0
100
AcDbLine
10
82.994247451424599
20
-28.761997222900391
30
0
11
82.994247451424599
21
-28.122200965881348
31
0
0
SPLINE
5
287
100
AcDbEntity
8
0
100
AcDbSpline
70
0
71
2
72
6
73
3
74
0
42
0.000000001
43
0.0000000001
44
0.0000000001
40
0
40
0
40
0
40
1
40
1
40
1
10
82.994247451424599
20
-28.122200965881348
30
0
10
82.994247451424599
20
-25.563020706176758
30
0
10
86.193223968148232
20
-25.563020706176758
30
0
0
LINE
5
288
100
AcDbEntity
8
0
100
AcDbLine
10
89.392200484871864
20
-34.520153999328613
30
0
11
82.994247451424599
21
-34.520153999328613
31
0
0
LINE
5
289
100
AcDbEntity
8
0
100
AcDbLine
10
82.994247451424599
20
-34.520153999328613
30
0
11
82.994247451424599
21
-32.600767612457275
31
0
0
LINE
5
290
100
AcDbEntity
8
0
100
AcDbLine
10
82.994247451424599
20
-32.600767612457275
30
0
11
89.392200484871864
21
-32.600767612457275
31
0
0
SPLINE
5
291
100
AcDbEntity
8
0
100
AcDbSpline
70
0
71
2
72
6
73
3
74
0
42
0.000000001
43
0.0000000001
44
0.0000000001
40
0
40
0
40
0
40
1
40
1
40
1
10
89.392200484871864
20
-32.600767612457275
30
0
10
90.031991973519325
20
-32.600767612457275
30
0
10
90.031991973519325
20
-31.960973739624023
30
0
0
SPLINE
5
292
100
AcDbEntity
8
0
100
AcDbSpline
70
0
71
2
72
6
73
3
74
0
42
0.000000001
43
0.0000000001
44
0.0000000001
40
0
40
0
40
0
40
1
40
1
40
1
10
90.031991973519325
20
-31.960973739624023
30
0
10
90.031991973519325
20
-31.32117748260498
30
0
10
89.392200484871864
20
-31.32117748260498
30
0
0
LINE
5
293
100
AcDbEntity
8
0
100
AcDbLine
10
89.392200484871864
20
-31.32117748260498
30
0
11
88.112607970833778
21
-31.32117748260498
31
0
0
LINE
5
294
100
AcDbEntity
8
0
100
AcDbLine
10
88.112607970833778
20
-31.32117748260498
30
0
11
88.112607970833778
21
-29.401791095733643
31
0
0
LINE
5
295
100
AcDbEntity
8
0
100
AcDbLine
10
88.112607970833778
20
-29.401791095733643
30
0
11
89.392200484871864
21
-29.401791095733643
31
0
0
SPLINE
5
296
100
AcDbEntity
8
0
100
AcDbSpline
70
0
71
2
72
6
73
3
74
0
42
0.000000001
43
0.0000000001
44
0.0000000001
40
0
40
0
40
0
40
1
40
1
40
1
10
89.392200484871864
20
-29.401791095733643
30
0
10
92.591177001595497
20
-29.401791095733643
30
0
10
92.591177001595497
20
-31.960973739624023
30
0
0
SPLINE
5
297
100
AcDbEntity
8
0
100
AcDbSpline
70
0
71
2
72
6
73
3
74
0
42
0.000000001
43
0.0000000001
44
0.0000000001
40
0
40
0
40
0
40
1
40
1
40
1
10
92.591177001595497
20
-31.960973739624023
30
0
10
92.591177001595497
20
-34.520153999328613
30
0
10
89.392200484871864
20
-34.520153999328613
30
0
0
LINE
5
298
100
AcDbEntity
8
0
100
AcDbLine
10
103.19795228540897
20
-27.4824059009552
30
0
11
94.2408237606287
21
-27.4824059009552
31
0
0
LINE
5
299
100
AcDbEntity
8
0
100
AcDbLine
10
94.2408237606287
20
-25.563020706176758
30
0
11
103.19795228540897
21
-25.563020706176758
31
0
0
LINE
5
300
100
AcDbEntity
8
0
100
AcDbLine
10
103.19795228540897
20
-25.563020706176758
30
0
11
103.19795228540897
21
-27.4824059009552
31
0
0
LWPOLYLINE
5
301
100
AcDbEntity
8
0
100
AcDbPolyline
90
6
70
1
43
0.0
10
94.2408237606287
20
-28.122200965881348
10
96.799999251961708
20
-28.122200965881348
10
96.799999251961708
20
-32.600767612457275
10
103.19795228540897
20
-32.600767612457275
10
103.19795228540897
20
-34.520153999328613
10
94.2408237606287
20
-34.520153999328613
0
LWPOLYLINE
5
302
100
AcDbEntity
8
0
100
AcDbPolyline
90
4
70
1
43
0.0
10
103.19795228540897
20
-31.32117748260498
10
99.35918428003788
20
-31.32117748260498
10
97.439800277352333
20
-29.401791095733643
10
103.19795228540897
20
-29.401791095733643
0
LWPOLYLINE
5
303
100
AcDbEntity
8
0
100
AcDbPolyline
90
4
70
1
43
0.0
10
110.65054513514042
20
-33.010237216949463
10
109.3261680752039
20
-35.563020706176758
10
104.14382554590702
20
-25.563020706176758
10
106.89494706690311
20
-25.563020706176758
0
LWPOLYLINE
5
304
100
AcDbEntity
8
0
100
AcDbPolyline
90
4
70
1
43
0.0
10
109.70364190638065
20
-29.606525897979736
10
111.75738908350468
20
-25.563020706176758
10
114.50851060450077
20
-25.563020706176758
10
111.04081727564335
20
-32.255277633666992
0
LWPOLYLINE
5
305
100
AcDbEntity
8
0
100
AcDbPolyline
90
6
70
1
43
0.0
10
115.45439340174198
20
-28.122200965881348
10
118.01356889307499
20
-28.122200965881348
10
118.01356889307499
20
-32.600767612457275
10
124.41152192652225
20
-32.600767612457275
10
124.41152192652225
20
-34.520153999328613
10
115.45439340174198
20
-34.520153999328613
0
LWPOLYLINE
5
306
100
AcDbEntity
8
0
100
AcDbPolyline
90
4
70
1
43
0.0
10
124.41152192652225
20
-31.32117748260498
10
120.57275392115116
20
-31.32117748260498
10
118.65336991846561
20
-29.401791095733643
10
124.41152192652225
20
-29.401791095733643
0
LWPOLYLINE
5
307
100
AcDbEntity
8
0
100
AcDbPolyline
90
4
70
1
43
0.0
10
126.06115914881229
20
-23.64363431930542
10
135.65808869898319
20
-33.240563869476318
10
135.65808869898319
20
-36.439540386199951
10
126.06115914881229
20
-26.842610836029053
0
LWPOLYLINE
5
308
100
AcDbEntity
8
0
100
AcDbPolyline
90
4
70
1
43
0.0
10
133.09890367090702
20
-29.785668849945068
10
133.09890367090702
20
-25.563020706176758
10
135.65808869898319
20
-25.563020706176758
10
135.65808869898319
20
-32.344849109649658
0
LWPOLYLINE
5
309
100
AcDbEntity
8
0
100
AcDbPolyline
90
4
70
1
43
0.0
10
128.62034417688847
20
-30.297505855560303
10
128.62034417688847
20
-34.520153999328613
10
126.06115914881229
20
-34.520153999328613
10
126.06115914881229
20
-27.738324403762817
0
LWPOLYLINE
5
310
100
AcDbEntity
8
0
100
AcDbPolyline
90
4
70
1
43
0.0
10
149.88508798182011
20
-27.4824059009552
10
140.92795945703983
20
-27.4824059009552
10
139.64836694300175
20
-25.563020706176758
10
149.88508798182011
20
-25.563020706176758
0
LWPOLYLINE
5
311
100
AcDbEntity
8
0
100
AcDbPolyline
90
6
70
1
43
0.0
10
140.92795945703983
20
-28.122200965881348
10
143.48713494837284
20
-28.122200965881348
10
143.48713494837284
20
-32.600767612457275
10
149.88508798182011
20
-32.600767612457275
10
149.88508798182011
20
-34.520153999328613
10
140.92795945703983
20
-34.520153999328613
0
LWPOLYLINE
5
312
100
AcDbEntity
8
0
100
AcDbPolyline
90
4
70
1
43
0.0
10
149.88508798182011
20
-31.32117748260498
10
146.04631997644901
20
-31.32117748260498
10
144.12693597376347
20
-29.401791095733643
10
149.88508798182011
20
-29.401791095733643
0
LWPOLYLINE
5
313
100
AcDbEntity
8
0
100
AcDbPolyline
90
4
70
1
43
0.0
10
151.53473474085331
20
-25.563020706176758
10
154.09391976892948
20
-25.563020706176758
10
154.09391976892948
20
-34.520153999328613
10
151.53473474085331
20
-34.520153999328613
0
LINE
5
314
100
AcDbEntity
8
0
100
AcDbLine
10
158.94254304468632
20
-25.563020706176758
30
0
11
165.34049607813358
21
-25.563020706176758
31
0
0
LINE
5
315
100
AcDbEntity
8
0
100
AcDbLine
10
165.34049607813358
20
-25.563020706176758
30
0
11
165.34049607813358
21
-27.4824059009552
31
0
0
LINE
5
316
100
AcDbEntity
8
0
100
AcDbLine
10
165.34049607813358
20
-27.4824059009552
30
0
11
158.94254304468632
21
-27.4824059009552
31
0
0
SPLINE
5
317
100
AcDbEntity
8
0
100
AcDbSpline
70
0
71
2
72
6
73
3
74
0
42
0.000000001
43
0.0000000001
44
0.0000000001
40
0
40
0
40
0
40
1
40
1
40
1
10
158.94254304468632
20
-27.4824059009552
30
0
10
158.30275155603886
20
-27.4824059009552
30
0
10
158.30275155603886
20
-28.122200965881348
30
0
0
LINE
5
318
100
AcDbEntity
8
0
100
AcDbLine
10
158.30275155603886
20
-28.122200965881348
30
0
11
158.30275155603886
21
-31.960973739624023
31
0
0
SPLINE
5
319
100
AcDbEntity
8
0
100
AcDbSpline
70
0
71
2
72
6
73
3
74
0
42
0.000000001
43
0.0000000001
44
0.0000000001
40
0
40
0
40
0
40
1
40
1
40
1
10
158.30275155603886
20
-31.960973739624023
30
0
10
158.30275155603886
20
-32.600767612457275
30
0
10
158.94254304468632
20
-32.600767612457275
30
0
0
LINE
5
320
100
AcDbEntity
8
0
100
AcDbLine
10
158.94254304468632
20
-32.600767612457275
30
0
11
162.14151956140995
21
-32.600767612457275
31
0
0
LINE
5
321
100
AcDbEntity
8
0
100
AcDbLine
10
162.14151956140995
20
-32.600767612457275
30
0
11
162.14151956140995
21
-34.520153999328613
31
0
0
LINE
5
322
100
AcDbEntity
8
0
100
AcDbLine
10
162.14151956140995
20
-34.520153999328613
30
0
11
158.94254304468632
21
-34.520153999328613
31
0
0
SPLINE
5
323
100
AcDbEntity
8
0
100
AcDbSpline
70
0
71
2
72
6
73
3
74
0
42
0.000000001
43
0.0000000001
44
0.0000000001
40
0
40
0
40
0
40
1
40
1
40
1
10
158.94254304468632
20
-34.520153999328613
30
0
10
155.74356652796268
20
-34.520153999328613
30
0
10
155.74356652796268
20
-31.960973739624023
30
0
0
LINE
5
324
100
AcDbEntity
8
0
100
AcDbLine
10
155.74356652796268
20
-31.960973739624023
30
0
11
155.74356652796268
21
-28.122200965881348
31
0
0
SPLINE
5
325
100
AcDbEntity
8
0
100
AcDbSpline
70
0
71
2
72
6
73
3
74
0
42
0.000000001
43
0.0000000001
44
0.0000000001
40
0
40
0
40
0
40
1
40
1
40
1
10
155.74356652796268
20
-28.122200965881348
30
0
10
155.74356652796268
20
-25.563020706176758
30
0
10
158.94254304468632
20
-25.563020706176758
30
0
0
LWPOLYLINE
5
326
100
AcDbEntity
8
0
100
AcDbPolyline
90
6
70
1
43
0.0
10
165.34049607813358
20
-34.520153999328613
10
162.78131105005741
20
-34.520153999328613
10
162.78131105005741
20
-31.32117748260498
10
160.86192704737186
20
-31.32117748260498
10
159.58233453333378
20
-29.401791095733643
10
165.34049607813358
20
-29.401791095733643
0
LWPOLYLINE
5
327
100
AcDbEntity
8
0
100
AcDbPolyline
90
4
70
1
43
0.0
10
166.99014283716679
20
-25.563020706176758
10
169.54933740198612
20
-25.563020706176758
10
169.54933740198612
20
-34.520153999328613
10
166.99014283716679
20
-34.520153999328613
0
LWPOLYLINE
5
328
100
AcDbEntity
8
0
100
AcDbPolyline
90
8
70
1
43
0.0
10
174.02788735926151
20
-31.32117748260498
10
171.46870233118534
20
-31.32117748260498
10
170.18911935389042
20
-29.401791095733643
10
174.02788735926151
20
-29.401791095733643
10
174.02788735926151
20
-25.563020706176758
10
176.58707238733768
20
-25.563020706176758
10
176.58707238733768
20
-34.520153999328613
10
174.02788735926151
20
-34.520153999328613
0
LWPOLYLINE
5
329
100
AcDbEntity
8
0
100
AcDbPolyline
90
5
70
1
43
0.0
10
187.193838134408
20
-27.4824059009552
10
178.23670007288456
20
-27.4824059009552
10
177.59690500795841
20
-26.522713303565979
10
178.23670007288456
20
-25.563020706176758
10
187.193838134408
20
-25.563020706176758
0
LWPOLYLINE
5
330
100
AcDbEntity
8
0
100
AcDbPolyline
90
4
70
1
43
0.0
10
181.43568612635136
20
-28.122200965881348
10
183.99487115442753
20
-28.122200965881348
10
183.99487115442753
20
-34.520153999328613
10
181.43568612635136
20
-34.520153999328613
0
LWPOLYLINE
5
331
100
AcDbEntity
8
0
100
AcDbPolyline
90
4
70
1
43
0.0
10
30.438519492745399
20
-37.296864986419678
10
40.035449042916298
20
-46.893794536590576
10
40.035449042916298
20
-50.092771053314209
10
30.438519492745399
20
-40.495841503143311
0
LWPOLYLINE
5
332
100
AcDbEntity
8
0
100
AcDbPolyline
90
4
70
1
43
0.0
10
37.476266399025917
20
-43.438899517059326
10
37.476266399025917
20
-39.216251373291016
10
40.035449042916298
20
-39.216251373291016
10
40.035449042916298
20
-45.998079776763916
0
LWPOLYLINE
5
333
100
AcDbEntity
8
0
100
AcDbPolyline
90
4
70
1
43
0.0
10
32.997699752449989
20
-43.950736522674561
10
32.997699752449989
20
-48.173384666442871
10
30.438519492745399
20
-48.173384666442871
10
30.438519492745399
20
-41.391556262969971
0
LWPOLYLINE
5
334
100
AcDbEntity
8
0
100
AcDbPolyline
90
4
70
1
43
0.0
10
41.685095801949501
20
-39.216251373291016
10
44.244276061654091
20
-39.216251373291016
10
44.244276061654091
20
-48.173384666442871
10
41.685095801949501
20
-48.173384666442871
0
LWPOLYLINE
5
335
100
AcDbEntity
8
0
100
AcDbPolyline
90
4
70
1
43
0.0
10
45.893922820687294
20
-37.296864986419678
10
55.490852370858192
20
-46.893794536590576
10
55.490852370858192
20
-50.092771053314209
10
45.893922820687294
20
-40.495841503143311
0
LWPOLYLINE
5
336
100
AcDbEntity
8
0
100
AcDbPolyline
90
4
70
1
43
0.0
10
52.931672111153603
20
-43.438899517059326
10
52.931672111153603
20
-39.216251373291016
10
55.490852370858192
20
-39.216251373291016
10
55.490852370858192
20
-45.998079776763916
0
LWPOLYLINE
5
337
100
AcDbEntity
8
0
100
AcDbPolyline
90
4
70
1
43
0.0
10
48.453103080391884
20
-43.950736522674561
10
48.453103080391884
20
-48.173384666442871
10
45.893922820687294
20
-48.173384666442871
10
45.893922820687294
20
-41.391556262969971
0
LINE
5
338
100
AcDbEntity
8
0
100
AcDbLine
10
66.097632423043251
20
-41.135637760162354
30
0
11
57.140499129891396
21
-41.135637760162354
31
0
0
LINE
5
339
100
AcDbEntity
8
0
100
AcDbLine
10
57.140499129891396
20
-39.216252565383911
30
0
11
66.097632423043251
21
-39.216251373291016
31
0
0
LINE
5
340
100
AcDbEntity
8
0
100
AcDbLine
10
66.097632423043251
20
-39.216251373291016
30
0
11
66.097632423043251
21
-41.135637760162354
31
0
0
LWPOLYLINE
5
341
100
AcDbEntity
8
0
100
AcDbPolyline
90
6
70
1
43
0.0
10
57.140499129891396
20
-41.775431632995605
10
59.699679389595985
20
-41.775431632995605
10
59.699679389595985
20
-46.253998279571533
10
66.097632423043251
20
-46.253998279571533
10
66.097632423043251
20
-48.173384666442871
10
57.140499129891396
20
-48.173384666442871
0
LWPOLYLINE
5
342
100
AcDbEntity
8
0
100
AcDbPolyline
90
4
70
1
43
0.0
10
66.097632423043251
20
-44.974408149719238
10
62.258859649300575
20
-44.974408149719238
10
60.339475646615028
20
-43.0550217628479
10
66.097632423043251
20
-43.0550217628479
0
LWPOLYLINE
5
343
100
AcDbEntity
8
0
100
AcDbPolyline
90
4
70
1
43
0.0
10
80.324631705880165
20
-41.135637760162354
10
71.36749841272831
20
-41.135637760162354
10
70.087905898690224
20
-39.216251373291016
10
80.324631705880165
20
-39.216251373291016
0
LWPOLYLINE
5
344
100
AcDbEntity
8
0
100
AcDbPolyline
90
4
70
1
43
0.0
10
74.566474929451942
20
-41.775431632995605
10
77.125655189156532
20
-41.775431632995605
10
77.125655189156532
20
-48.173384666442871
10
74.566474929451942
20
-48.173384666442871
0
LINE
5
345
100
AcDbEntity
8
0
100
AcDbLine
10
90.931411758065224
20
-41.135637760162354
30
0
11
81.974278464913368
21
-41.135637760162354
31
0
0
LINE
5
346
100
AcDbEntity
8
0
100
AcDbLine
10
81.974278464913368
20
-39.216252565383911
30
0
11
90.931411758065224
21
-39.216251373291016
31
0
0
LINE
5
347
100
AcDbEntity
8
0
100
AcDbLine
10
90.931411758065224
20
-39.216251373291016
30
0
11
90.931411758065224
21
-41.135637760162354
31
0
0
LWPOLYLINE
5
348
100
AcDbEntity
8
0
100
AcDbPolyline
90
6
70
1
43
0.0
10
81.974278464913368
20
-41.775431632995605
10
84.533458724617958
20
-41.775431632995605
10
84.533458724617958
20
-46.253998279571533
10
90.931411758065224
20
-46.253998279571533
10
90.931411758065224
20
-48.173384666442871
10
81.974278464913368
20
-48.173384666442871
0
LWPOLYLINE
5
349
100
AcDbEntity
8
0
100
AcDbPolyline
90
4
70
1
43
0.0
10
90.931411758065224
20
-44.974408149719238
10
87.092638984322548
20
-44.974408149719238
10
85.173254981637001
20
-43.0550217628479
10
90.931411758065224
20
-43.0550217628479
0
LWPOLYLINE
5
350
100
AcDbEntity
8
0
100
AcDbPolyline
90
4
70
1
43
0.0
10
92.581058517098427
20
-37.296864986419678
10
102.17798806726933
20
-46.893794536590576
10
102.17798806726933
20
-50.092771053314209
10
92.581058517098427
20
-40.495841503143311
0
LWPOLYLINE
5
351
100
AcDbEntity
8
0
100
AcDbPolyline
90
4
70
1
43
0.0
10
99.618803039193153
20
-43.438899517059326
10
99.618803039193153
20
-39.216251373291016
10
102.17798806726933
20
-39.216251373291016
10
102.17798806726933
20
-45.998079776763916
0
LWPOLYLINE
5
352
100
AcDbEntity
8
0
100
AcDbPolyline
90
4
70
1
43
0.0
10
95.140234008431435
20
-43.950736522674561
10
95.140234008431435
20
-48.173384666442871
10
92.581058517098427
20
-48.173384666442871
10
92.581058517098427
20
-41.391556262969971
0
LWPOLYLINE
5
353
100
AcDbEntity
8
0
100
AcDbPolyline
90
4
70
1
43
0.0
10
116.40498735010624
20
-41.135637760162354
10
107.44785882532597
20
-41.135637760162354
10
106.16825677454472
20
-39.216251373291016
10
116.40498735010624
20
-39.216251373291016
0
LWPOLYLINE
5
354
100
AcDbEntity
8
0
100
AcDbPolyline
90
6
70
1
43
0.0
10
107.44785882532597
20
-41.775431632995605
10
110.00703431665897
20
-41.775431632995605
10
110.00703431665897
20
-46.253998279571533
10
116.40498735010624
20
-46.253998279571533
10
116.40498735010624
20
-48.173384666442871
10
107.44785882532597
20
-48.173384666442871
0
LWPOLYLINE
5
355
100
AcDbEntity
8
0
100
AcDbPolyline
90
4
70
1
43
0.0
10
116.40498735010624
20
-44.974408149719238
10
112.56620980799198
20
-44.974408149719238
10
110.64682580530643
20
-43.0550217628479
10
116.40498735010624
20
-43.0550217628479
0
LWPOLYLINE
5
356
100
AcDbEntity
8
0
100
AcDbPolyline
90
4
70
1
43
0.0
10
120.61380960047245
20
-45.614204406738281
10
118.05462457239628
20
-45.614204406738281
10
118.05462457239628
20
-39.216251373291016
10
120.61380960047245
20
-39.216251373291016
0
LWPOLYLINE
5
357
100
AcDbEntity
8
0
100
AcDbPolyline
90
4
70
1
43
0.0
10
118.05462457239628
20
-46.253998279571533
10
127.01176263391972
20
-46.253998279571533
10
127.01176263391972
20
-48.173384666442871
10
118.05462457239628
20
-48.173384666442871
0
LWPOLYLINE
5
358
100
AcDbEntity
8
0
100
AcDbPolyline
90
4
70
1
43
0.0
10
137.47139550745487
20
-41.135637760162354
10
128.5142669826746
20
-41.135637760162354
10
127.23467446863651
20
-39.216251373291016
10
137.47139550745487
20
-39.216251373291016
0
LWPOLYLINE
5
359
100
AcDbEntity
8
0
100
AcDbPolyline
90
6
70
1
43
0.0
10
128.5142669826746
20
-41.775431632995605
10
131.07344247400761
20
-41.775431632995605
10
131.07344247400761
20
-46.253998279571533
10
137.47139550745487
20
-46.253998279571533
10
137.47139550745487
20
-48.173384666442871
10
128.5142669826746
20
-48.173384666442871
0
LWPOLYLINE
5
360
100
AcDbEntity
8
0
100
AcDbPolyline
90
4
70
1
43
0.0
10
137.47139550745487
20
-44.974408149719238
10
133.63262750208378
20
-44.974408149719238
10
131.71324349939823
20
-43.0550217628479
10
137.47139550745487
20
-43.0550217628479
0
LWPOLYLINE
5
361
100
AcDbEntity
8
0
100
AcDbPolyline
90
4
70
1
43
0.0
10
144.92397882044315
20
-46.663467884063721
10
143.59960176050663
20
-49.216248989105225
10
138.41725923120975
20
-39.216251373291016
10
141.16838075220585
20
-39.216251373291016
0
LWPOLYLINE
5
362
100
AcDbEntity
8
0
100
AcDbPolyline
90
4
70
1
43
0.0
10
143.97707559168339
20
-43.259756565093994
10
146.03082276880741
20
-39.216251373291016
10
148.7819442898035
20
-39.216251373291016
10
145.31425096094608
20
-45.90850830078125
0
LWPOLYLINE
5
363
100
AcDbEntity
8
0
100
AcDbPolyline
90
6
70
1
43
0.0
10
149.72782708704472
20
-41.775431632995605
10
152.28700257837772
20
-41.775431632995605
10
152.28700257837772
20
-46.253998279571533
10
158.68495561182499
20
-46.253998279571533
10
158.68495561182499
20
-48.173384666442871
10
149.72782708704472
20
-48.173384666442871
0
LWPOLYLINE
5
364
100
AcDbEntity
8
0
100
AcDbPolyline
90
4
70
1
43
0.0
10
158.68495561182499
20
-44.974408149719238
10
154.8461876064539
20
-44.974408149719238
10
152.92680360376835
20
-43.0550217628479
10
158.68495561182499
20
-43.0550217628479
0
LWPOLYLINE
5
365
100
AcDbEntity
8
0
100
AcDbPolyline
90
4
70
1
43
0.0
10
160.33460237085819
20
-37.296864986419678
10
169.93153192102909
20
-46.893794536590576
10
169.93153192102909
20
-50.092771053314209
10
160.33460237085819
20
-40.495841503143311
0
LWPOLYLINE
5
366
100
AcDbEntity
8
0
100
AcDbPolyline
90
4
70
1
43
0.0
10
167.37234689295292
20
-43.438899517059326
10
167.37234689295292
20
-39.216251373291016
10
169.93153192102909
20
-39.216251373291016
10
169.93153192102909
20
-45.998079776763916
0
LWPOLYLINE
5
367
100
AcDbEntity
8
0
100
AcDbPolyline
90
4
70
1
43
0.0
10
162.89378739893436
20
-43.950736522674561
10
162.89378739893436
20
-48.173384666442871
10
160.33460237085819
20
-48.173384666442871
10
160.33460237085819
20
-41.391556262969971
0
LWPOLYLINE
5
368
100
AcDbEntity
8
0
100
AcDbPolyline
90
4
70
1
43
0.0
10
23.728605285286903
20
-54.788863658905029
10
14.771470800042152
20
-54.788863658905029
10
13.491880372166634
20
-52.869479656219482
10
23.728605285286903
20
-52.869479656219482
0
LWPOLYLINE
5
369
100
AcDbEntity
8
0
100
AcDbPolyline
90
4
70
1
43
0.0
10
17.970447316765785
20
-55.428659915924072
10
20.529628768563271
20
-55.428659915924072
10
20.529628768563271
20
-61.826612949371338
10
17.970447316765785
20
-61.826612949371338
0
LWPOLYLINE
5
370
100
AcDbEntity
8
0
100
AcDbPolyline
90
6
70
1
43
0.0
10
31.392327323555946
20
-59.907228946685791
10
29.856818690896034
20
-62.869479656219482
10
24.674477353692055
20
-52.869479656219482
10
27.425597682595253
20
-52.869479656219482
10
29.856818690896034
20
-57.648751735687256
10
30.035961642861366
20
-57.290465831756592
0
LWPOLYLINE
5
371
100
AcDbEntity
8
0
100
AcDbPolyline
90
4
70
1
43
0.0
10
32.160082831978798
20
-53.118999004364014
10
32.288042083382607
20
-52.869479656219482
10
35.039161220192909
20
-52.869479656219482
10
33.522845283150673
20
-55.799739360809326
0
LWPOLYLINE
5
372
100
AcDbEntity
8
0
100
AcDbPolyline
90
6
70
1
43
0.0
10
33.69559146463871
20
-57.648751735687256
10
36.126812472939491
20
-52.869479656219482
10
38.877931609749794
20
-52.869479656219482
10
33.69559146463871
20
-62.869479656219482
10
28.513248935341835
20
-52.869479656219482
10
31.264368072152138
20
-52.869479656219482
0
LWPOLYLINE
5
373
100
AcDbEntity
8
0
100
AcDbPolyline
90
6
70
1
43
0.0
10
39.82380248606205
20
-55.428659915924072
10
42.382985129952431
20
-55.428659915924072
10
42.382985129952431
20
-59.907228946685791
10
48.780938163399696
20
-59.907228946685791
10
48.780938163399696
20
-61.826612949371338
10
39.82380248606205
20
-61.826612949371338
0
LWPOLYLINE
5
374
100
AcDbEntity
8
0
100
AcDbPolyline
90
4
70
1
43
0.0
10
48.780938163399696
20
-58.627636432647705
10
44.942165389657021
20
-58.627636432647705
10
43.022779002785683
20
-56.708252429962158
10
48.780938163399696
20
-56.708252429962158
0
LWPOLYLINE
5
375
100
AcDbEntity
8
0
100
AcDbPolyline
90
4
70
1
43
0.0
10
52.989765182137489
20
-59.267432689666748
10
50.430589690804482
20
-59.267432689666748
10
50.430589690804482
20
-52.869479656219482
10
52.989765182137489
20
-52.869479656219482
0
LWPOLYLINE
5
376
100
AcDbEntity
8
0
100
AcDbPolyline
90
4
70
1
43
0.0
10
50.430589690804482
20
-59.907228946685791
10
59.387722983956337
20
-59.907228946685791
10
59.387722983956337
20
-61.826612949371338
10
50.430589690804482
20
-61.826612949371338
0
LWPOLYLINE
5
377
100
AcDbEntity
8
0
100
AcDbPolyline
90
4
70
1
43
0.0
10
63.647733703255653
20
-60.316693782806396
10
62.32335664331913
20
-62.869479656219482
10
57.141014114022255
20
-52.869479656219482
10
59.892135635018349
20
-52.869479656219482
0
LWPOLYLINE
5
378
100
AcDbEntity
8
0
100
AcDbPolyline
90
4
70
1
43
0.0
10
62.70083524286747
20
-56.912987232208252
10
64.754577651619911
20
-52.869479656219482
10
67.505699172616005
20
-52.869479656219482
10
64.038005843758583
20
-59.561736583709717
0
LWPOLYLINE
5
379
100
AcDbEntity
8
0
100
AcDbPolyline
90
6
70
1
43
0.0
10
68.45156766474247
20
-55.428659915924072
10
71.01074792444706
20
-55.428659915924072
10
71.01074792444706
20
-59.907228946685791
10
77.408700957894325
20
-59.907228946685791
10
77.408700957894325
20
-61.826612949371338
10
68.45156766474247
20
-61.826612949371338
0
LWPOLYLINE
5
380
100
AcDbEntity
8
0
100
AcDbPolyline
90
4
70
1
43
0.0
10
77.408700957894325
20
-58.627636432647705
10
73.569928184151649
20
-58.627636432647705
10
71.650544181466103
20
-56.708252429962158
10
77.408700957894325
20
-56.708252429962158
0
LWPOLYLINE
5
381
100
AcDbEntity
8
0
100
AcDbPolyline
90
4
70
1
43
0.0
10
91.635700240731239
20
-54.788863658905029
10
82.678566947579384
20
-54.788863658905029
10
81.398974433541298
20
-52.869479656219482
10
91.635700240731239
20
-52.869479656219482
0
LWPOLYLINE
5
382
100
AcDbEntity
8
0
100
AcDbPolyline
90
4
70
1
43
0.0
10
85.877543464303017
20
-55.428659915924072
10
88.436723724007607
20
-55.428659915924072
10
88.436723724007607
20
-61.826612949371338
10
85.877543464303017
20
-61.826612949371338
0
LWPOLYLINE
5
383
100
AcDbEntity
8
0
100
AcDbPolyline
90
5
70
1
43
0.0
10
102.24247552454472
20
-54.788863658905029
10
93.285346999764442
20
-54.788863658905029
10
92.645551934838295
20
-53.829171061515808
10
93.285346999764442
20
-52.869478464126587
10
102.24247552454472
20
-52.869479656219482
0
LWPOLYLINE
5
384
100
AcDbEntity
8
0
100
AcDbPolyline
90
6
70
1
43
0.0
10
93.285346999764442
20
-55.428659915924072
10
95.84452249109745
20
-55.428659915924072
10
95.84452249109745
20
-59.907228946685791
10
102.24247552454472
20
-59.907228946685791
10
102.24247552454472
20
-61.826612949371338
10
93.285346999764442
20
-61.826612949371338
0
LWPOLYLINE
5
385
100
AcDbEntity
8
0
100
AcDbPolyline
90
4
70
1
43
0.0
10
102.24247552454472
20
-58.627636432647705
10
98.403707519173622
20
-58.627636432647705
10
96.484323516488075
20
-56.708252429962158
10
102.24247552454472
20
-56.708252429962158
0
LWPOLYLINE
5
386
100
AcDbEntity
8
0
100
AcDbPolyline
90
4
70
1
43
0.0
10
103.89212228357792
20
-50.950090885162354
10
113.48905183374882
20
-60.547020435333252
10
113.48905183374882
20
-63.745996952056885
10
103.89212228357792
20
-54.149067401885986
0
LWPOLYLINE
5
387
100
AcDbEntity
8
0
100
AcDbPolyline
90
4
70
1
43
0.0
10
110.92986680567265
20
-57.092125415802002
10
110.92986680567265
20
-52.869479656219482
10
113.48905183374882
20
-52.869479656219482
10
113.48905183374882
20
-59.651310443878174
0
LWPOLYLINE
5
388
100
AcDbEntity
8
0
100
AcDbPolyline
90
4
70
1
43
0.0
10
106.45130731165409
20
-57.603962421417236
10
106.45130731165409
20
-61.826612949371338
10
103.89212228357792
20
-61.826612949371338
10
103.89212228357792
20
-55.044782161712646
0
LWPOLYLINE
5
389
100
AcDbEntity
8
0
100
AcDbPolyline
90
4
70
1
43
0.0
10
121.31809808313847
20
-61.826612949371338
10
118.75892259180546
20
-61.826612949371338
10
118.75892259180546
20
-55.428659915924072
10
121.31809808313847
20
-55.428659915924072
0
LWPOLYLINE
5
390
100
AcDbEntity
8
0
100
AcDbPolyline
90
4
70
1
43
0.0
10
127.71605111658573
20
-58.627636432647705
10
123.87728311121464
20
-58.627636432647705
10
121.95789910852909
20
-56.708252429962158
10
127.71605111658573
20
-56.708252429962158
0
LWPOLYLINE
5
391
100
AcDbEntity
8
0
100
AcDbPolyline
90
4
70
1
43
0.0
10
127.71605111658573
20
-54.788863658905029
10
118.75892259180546
20
-54.788863658905029
10
117.47933007776737
20
-52.869479656219482
10
127.71605111658573
20
-52.869479656219482
0
LWPOLYLINE
5
392
100
AcDbEntity
8
0
100
AcDbPolyline
90
4
70
1
43
0.0
10
129.36569787561893
20
-52.869479656219482
10
131.92488290369511
20
-52.869479656219482
10
131.92488290369511
20
-61.826612949371338
10
129.36569787561893
20
-61.826612949371338
0
LWPOLYLINE
5
393
100
AcDbEntity
8
0
100
AcDbPolyline
90
4
70
1
43
0.0
10
136.13371469080448
20
-61.826612949371338
10
133.57453919947147
20
-61.826612949371338
10
133.57453919947147
20
-55.428659915924072
10
136.13371469080448
20
-55.428659915924072
0
LWPOLYLINE
5
394
100
AcDbEntity
8
0
100
AcDbPolyline
90
4
70
1
43
0.0
10
142.53166772425175
20
-58.627636432647705
10
138.69289971888065
20
-58.627636432647705
10
136.77351571619511
20
-56.708252429962158
10
142.53166772425175
20
-56.708252429962158
0
LINE
5
395
100
AcDbEntity
8
0
100
AcDbLine
10
142.53166772425175
20
-54.788863658905029
30
0
11
133.57453919947147
21
-54.788863658905029
31
0
0
LINE
5
396
100
AcDbEntity
8
0
100
AcDbLine
10
133.57453919947147
20
-52.869478464126587
30
0
11
142.53166772425175
21
-52.869479656219482
31
0
0
LINE
5
397
100
AcDbEntity
8
0
100
AcDbLine
10
142.53166772425175
20
-52.869479656219482
30
0
11
142.53166772425175
21
-54.788863658905029
31
0
0
LWPOLYLINE
5
398
100
AcDbEntity
8
0
100
AcDbPolyline
90
5
70
1
43
0.0
10
153.13844300806522
20
-54.788863658905029
10
144.18131448328495
20
-54.788863658905029
10
143.5415194183588
20
-53.829171061515808
10
144.18131448328495
20
-52.869478464126587
10
153.13844300806522
20
-52.869479656219482
0
LWPOLYLINE
5
399
100
AcDbEntity
8
0
100
AcDbPolyline
90
4
70
1
43
0.0
10
147.38029100000858
20
-55.428659915924072
10
149.93946649134159
20
-55.428659915924072
10
149.93946649134159
20
-61.826612949371338
10
147.38029100000858
20
-61.826612949371338
0
LINE
5
400
100
AcDbEntity
8
0
100
AcDbLine
10
163.74522782862186
20
-54.788863658905029
30
0
11
154.78809930384159
21
-54.788863658905029
31
0
0
LINE
5
401
100
AcDbEntity
8
0
100
AcDbLine
10
154.78809930384159
20
-52.869478464126587
30
0
11
163.74522782862186
21
-52.869479656219482
31
0
0
LINE
5
402
100
AcDbEntity
8
0
100
AcDbLine
10
163.74522782862186
20
-52.869479656219482
30
0
11
163.74522782862186
21
-54.788863658905029
31
0
0
LWPOLYLINE
5
403
100
AcDbEntity
8
0
100
AcDbPolyline
90
6
70
1
43
0.0
10
154.78809930384159
20
-55.428659915924072
10
157.3472747951746
20
-55.428659915924072
10
157.3472747951746
20
-59.907228946685791
10
163.74522782862186
20
-59.907228946685791
10
163.74522782862186
20
-61.826612949371338
10
154.78809930384159
20
-61.826612949371338
0
LWPOLYLINE
5
404
100
AcDbEntity
8
0
100
AcDbPolyline
90
4
70
1
43
0.0
10
163.74522782862186
20
-58.627636432647705
10
159.90645982325077
20
-58.627636432647705
10
157.98707582056522
20
-56.708252429962158
10
163.74522782862186
20
-56.708252429962158
0
LINE
5
405
100
AcDbEntity
8
0
100
AcDbLine
10
174.35200311243534
20
-54.788863658905029
30
0
11
165.39487458765507
21
-54.788863658905029
31
0
0
LINE
5
406
100
AcDbEntity
8
0
100
AcDbLine
10
165.39487458765507
20
-52.869478464126587
30
0
11
174.35200311243534
21
-52.869479656219482
31
0
0
LINE
5
407
100
AcDbEntity
8
0
100
AcDbLine
10
174.35200311243534
20
-52.869479656219482
30
0
11
174.35200311243534
21
-54.788863658905029
31
0
0
LWPOLYLINE
5
408
100
AcDbEntity
8
0
100
AcDbPolyline
90
6
70
1
43
0.0
10
165.39487458765507
20
-55.428659915924072
10
167.95405007898808
20
-55.428659915924072
10
167.95405007898808
20
-59.907228946685791
10
174.35200311243534
20
-59.907228946685791
10
174.35200311243534
20
-61.826612949371338
10
165.39487458765507
20
-61.826612949371338
0
LWPOLYLINE
5
409
100
AcDbEntity
8
0
100
AcDbPolyline
90
4
70
1
43
0.0
10
174.35200311243534
20
-58.627636432647705
10
170.51323510706425
20
-58.627636432647705
10
168.5938511043787
20
-56.708252429962158
10
174.35200311243534
20
-56.708252429962158
0
LWPOLYLINE
5
410
100
AcDbEntity
8
0
100
AcDbPolyline
90
4
70
1
43
0.0
10
176.00166894495487
20
-50.950090885162354
10
185.59856988489628
20
-60.547020435333252
10
185.59856988489628
20
-63.745996952056885
10
176.00166894495487
20
-54.149067401885986
0
LWPOLYLINE
5
411
100
AcDbEntity
8
0
100
AcDbPolyline
90
4
70
1
43
0.0
10
183.03940393030643
20
-57.092125415802002
10
183.03940393030643
20
-52.869479656219482
10
185.59856988489628
20
-52.869479656219482
10
185.59856988489628
20
-59.651310443878174
0
LWPOLYLINE
5
412
100
AcDbEntity
8
0
100
AcDbPolyline
90
4
70
1
43
0.0
10
178.56083489954472
20
-57.603962421417236
10
178.56083489954472
20
-61.826612949371338
10
176.00166894495487
20
-61.826612949371338
10
176.00166894495487
20
-55.044782161712646
0
LWPOLYLINE
5
413
100
AcDbEntity
8
0
100
AcDbPolyline
90
4
70
1
43
0.0
10
44.548178687691689
20
-68.442094326019287
10
35.591045394539833
20
-68.442094326019287
10
34.311452880501747
20
-66.52271032333374
10
44.548178687691689
20
-66.52271032333374
0
LWPOLYLINE
5
414
100
AcDbEntity
8
0
100
AcDbPolyline
90
4
70
1
43
0.0
10
38.790021911263466
20
-69.08189058303833
10
41.349202170968056
20
-69.08189058303833
10
41.349202170968056
20
-75.479843616485596
10
38.790021911263466
20
-75.479843616485596
0
LWPOLYLINE
5
415
100
AcDbEntity
8
0
100
AcDbPolyline
90
6
70
1
43
0.0
10
52.211900725960732
20
-73.560459613800049
10
50.676389709115028
20
-76.52271032333374
10
45.494051948189735
20
-66.52271032333374
10
48.245171085000038
20
-66.52271032333374
10
50.676389709115028
20
-71.301982402801514
10
50.855537429451942
20
-70.94369649887085
0
LWPOLYLINE
5
416
100
AcDbEntity
8
0
100
AcDbPolyline
90
4
70
1
43
0.0
10
52.979656234383583
20
-66.772229671478271
10
53.107615485787392
20
-66.52271032333374
10
55.858732238411903
20
-66.52271032333374
10
54.342418685555458
20
-69.452970027923584
0
LWPOLYLINE
5
417
100
AcDbEntity
8
0
100
AcDbPolyline
90
6
70
1
43
0.0
10
54.515167251229286
20
-71.301982402801514
10
56.946388259530067
20
-66.52271032333374
10
59.697505012154579
20
-66.52271032333374
10
54.515167251229286
20
-76.52271032333374
10
49.33282233774662
20
-66.52271032333374
10
52.083941474556923
20
-66.52271032333374
0
LWPOLYLINE
5
418
100
AcDbEntity
8
0
100
AcDbPolyline
90
6
70
1
43
0.0
10
60.643373504281044
20
-69.08189058303833
10
63.202558532357216
20
-69.08189058303833
10
63.202558532357216
20
-73.560459613800049
10
69.600511565804482
20
-73.560459613800049
10
69.600511565804482
20
-75.479843616485596
10
60.643373504281044
20
-75.479843616485596
0
LWPOLYLINE
5
419
100
AcDbEntity
8
0
100
AcDbPolyline
90
4
70
1
43
0.0
10
69.600511565804482
20
-72.280867099761963
10
65.761738792061806
20
-72.280867099761963
10
63.842350021004677
20
-70.361483097076416
10
69.600511565804482
20
-70.361483097076416
0
LWPOLYLINE
5
420
100
AcDbEntity
8
0
100
AcDbPolyline
90
4
70
1
43
0.0
10
71.250158324837685
20
-64.603321552276611
10
80.847087875008583
20
-74.20025110244751
10
80.847087875008583
20
-77.399227619171143
10
71.250158324837685
20
-67.802298069000244
0
LWPOLYLINE
5
421
100
AcDbEntity
8
0
100
AcDbPolyline
90
4
70
1
43
0.0
10
78.287907615303993
20
-70.74535608291626
10
78.287907615303993
20
-66.52271032333374
10
80.847087875008583
20
-66.52271032333374
10
80.847087875008583
20
-73.304541110992432
0
LWPOLYLINE
5
422
100
AcDbEntity
8
0
100
AcDbPolyline
90
4
70
1
43
0.0
10
73.809343352913857
20
-71.257193088531494
10
73.809343352913857
20
-75.479843616485596
10
71.250158324837685
20
-75.479843616485596
10
71.250158324837685
20
-68.698012828826904
0
LWPOLYLINE
5
423
100
AcDbEntity
8
0
100
AcDbPolyline
90
5
70
1
43
0.0
10
91.45386315882206
20
-68.442094326019287
10
82.496734634041786
20
-68.442094326019287
10
81.856939569115639
20
-67.482401728630066
10
82.496734634041786
20
-66.522709131240845
10
91.45386315882206
20
-66.52271032333374
0
LWPOLYLINE
5
424
100
AcDbEntity
8
0
100
AcDbPolyline
90
4
70
1
43
0.0
10
85.695711150765419
20
-69.08189058303833
10
88.254891410470009
20
-69.08189058303833
10
88.254891410470009
20
-75.479843616485596
10
85.695711150765419
20
-75.479843616485596
0
LWPOLYLINE
5
425
100
AcDbEntity
8
0
100
AcDbPolyline
90
4
70
1
43
0.0
10
97.965951934456825
20
-68.352525234222412
10
99.405504241585732
20
-66.52271032333374
10
102.73243524134159
20
-66.52271032333374
10
99.629426971077919
20
-70.470244884490967
0
LWPOLYLINE
5
426
100
AcDbEntity
8
0
100
AcDbPolyline
90
7
70
1
43
0.0
10
96.27050019800663
20
-71.48751974105835
10
92.367750182747841
20
-66.52271032333374
10
95.6946811825037
20
-66.52271032333374
10
99.213558211922646
20
-71.001274585723877
10
98.829675689339638
20
-71.48751974105835
10
98.829675689339638
20
-75.479843616485596
10
96.27050019800663
20
-75.479843616485596
0
LWPOLYLINE
5
427
100
AcDbEntity
8
0
100
AcDbPolyline
90
4
70
1
43
0.0
10
116.5755520015955
20
-68.442094326019287
10
107.61842347681522
20
-68.442094326019287
10
106.33883096277714
20
-66.52271032333374
10
116.5755520015955
20
-66.52271032333374
0
LWPOLYLINE
5
428
100
AcDbEntity
8
0
100
AcDbPolyline
90
4
70
1
43
0.0
10
110.81739999353886
20
-69.08189058303833
10
113.37658502161503
20
-69.08189058303833
10
113.37658502161503
20
-75.479843616485596
10
110.81739999353886
20
-75.479843616485596
0
LWPOLYLINE
5
429
100
AcDbEntity
8
0
100
AcDbPolyline
90
4
70
1
43
0.0
10
118.2251987606287
20
-66.52271032333374
10
120.78438378870487
20
-66.52271032333374
10
120.78438378870487
20
-75.479843616485596
10
118.2251987606287
20
-75.479843616485596
0
LWPOLYLINE
5
430
100
AcDbEntity
8
0
100
AcDbPolyline
90
8
70
1
43
0.0
10
125.26293374598026
20
-72.280867099761963
10
122.70376779139042
20
-72.280867099761963
10
121.42416574060917
20
-70.361483097076416
10
125.26293374598026
20
-70.361483097076416
10
125.26293374598026
20
-66.52271032333374
10
127.82211877405643
20
-66.52271032333374
10
127.82211877405643
20
-75.479843616485596
10
125.26293374598026
20
-75.479843616485596
0
LWPOLYLINE
5
431
100
AcDbEntity
8
0
100
AcDbPolyline
90
4
70
1
43
0.0
10
129.47176553308964
20
-66.52271032333374
10
132.03095056116581
20
-66.52271032333374
10
132.03095056116581
20
-75.479843616485596
10
129.47176553308964
20
-75.479843616485596
0
LWPOLYLINE
5
432
100
AcDbEntity
8
0
100
AcDbPolyline
90
4
70
1
43
0.0
10
136.23978234827518
20
-75.479843616485596
10
133.68061639368534
20
-75.479843616485596
10
133.68061639368534
20
-69.08189058303833
10
136.23978234827518
20
-69.08189058303833
0
LINE
5
433
100
AcDbEntity
8
0
100
AcDbLine
10
140.07856942713261
20
-68.442094326019287
30
0
11
133.68061639368534
21
-68.442094326019287
31
0
0
LINE
5
434
100
AcDbEntity
8
0
100
AcDbLine
10
133.68061639368534
20
-68.442094326019287
30
0
11
133.04082132875919
21
-67.482401728630066
31
0
0
LINE
5
435
100
AcDbEntity
8
0
100
AcDbLine
10
133.68061639368534
20
-66.522709131240845
30
0
11
140.07856942713261
21
-66.52271032333374
31
0
0
SPLINE
5
436
100
AcDbEntity
8
0
100
AcDbSpline
70
0
71
2
72
6
73
3
74
0
42
0.000000001
43
0.0000000001
44
0.0000000001
40
0
40
0
40
0
40
1
40
1
40
1
10
140.07856942713261
20
-66.52271032333374
30
0
10
143.27753640711308
20
-66.52271032333374
30
0
10
143.27753640711308
20
-69.08189058303833
30
0
0
LINE
5
437
100
AcDbEntity
8
0
100
AcDbLine
10
143.27753640711308
20
-69.08189058303833
30
0
11
143.27753640711308
21
-69.721686840057373
31
0
0
SPLINE
5
438
100
AcDbEntity
8
0
100
AcDbSpline
70
0
71
2
72
6
73
3
74
0
42
0.000000001
43
0.0000000001
44
0.0000000001
40
0
40
0
40
0
40
1
40
1
40
1
10
143.27753640711308
20
-69.721686840057373
30
0
10
143.27753640711308
20
-71.775429248809814
30
0
10
141.21739007532597
20
-72.178499698638916
30
0
0
LINE
5
439
100
AcDbEntity
8
0
100
AcDbLine
10
141.21739007532597
20
-72.178499698638916
30
0
11
143.27753640711308
21
-75.479843616485596
31
0
0
LINE
5
440
100
AcDbEntity
8
0
100
AcDbLine
10
143.27753640711308
20
-75.479843616485596
30
0
11
140.07856942713261
21
-75.479843616485596
31
0
0
LINE
5
441
100
AcDbEntity
8
0
100
AcDbLine
10
140.07856942713261
20
-75.479843616485596
30
0
11
136.87958337366581
21
-70.361483097076416
31
0
0
LINE
5
442
100
AcDbEntity
8
0
100
AcDbLine
10
136.87958337366581
20
-70.361483097076416
30
0
11
140.07856942713261
21
-70.361483097076416
31
0
0
SPLINE
5
443
100
AcDbEntity
8
0
100
AcDbSpline
70
0
71
2
72
6
73
3
74
0
42
0.000000001
43
0.0000000001
44
0.0000000001
40
0
40
0
40
0
40
1
40
1
40
1
10
140.07856942713261
20
-70.361483097076416
30
0
10
140.7183513790369
20
-70.361483097076416
30
0
10
140.7183513790369
20
-69.721686840057373
30
0
0
LINE
5
444
100
AcDbEntity
8
0
100
AcDbLine
10
140.7183513790369
20
-69.721686840057373
30
0
11
140.7183513790369
21
-69.08189058303833
31
0
0
SPLINE
5
445
100
AcDbEntity
8
0
100
AcDbSpline
70
0
71
2
72
6
73
3
74
0
42
0.000000001
43
0.0000000001
44
0.0000000001
40
0
40
0
40
0
40
1
40
1
40
1
10
140.7183513790369
20
-69.08189058303833
30
0
10
140.7183513790369
20
-68.442094326019287
30
0
10
140.07856942713261
20
-68.442094326019287
30
0
0
LWPOLYLINE
5
446
100
AcDbEntity
8
0
100
AcDbPolyline
90
4
70
1
43
0.0
10
153.88432122766972
20
-68.442094326019287
10
144.92718316614628
20
-68.442094326019287
10
143.64760018885136
20
-66.52271032333374
10
153.88432122766972
20
-66.52271032333374
0
LWPOLYLINE
5
447
100
AcDbEntity
8
0
100
AcDbPolyline
90
4
70
1
43
0.0
10
148.12616921961308
20
-69.08189058303833
10
150.68533517420292
20
-69.08189058303833
10
150.68533517420292
20
-75.479843616485596
10
148.12616921961308
20
-75.479843616485596
0
LWPOLYLINE
5
448
100
AcDbEntity
8
0
100
AcDbPolyline
90
4
70
1
43
0.0
10
160.39641000330448
20
-68.352525234222412
10
161.83594323694706
20
-66.52271032333374
10
165.16289331018925
20
-66.52271032333374
10
162.05988503992558
20
-70.470244884490967
0
LWPOLYLINE
5
449
100
AcDbEntity
8
0
100
AcDbPolyline
90
7
70
1
43
0.0
10
158.70094873011112
20
-71.48751974105835
10
154.7982082515955
20
-66.52271032333374
10
158.12513925135136
20
-66.52271032333374
10
161.64400674402714
20
-71.001274585723877
10
161.26013375818729
20
-71.48751974105835
10
161.26013375818729
20
-75.479843616485596
10
158.70094873011112
20
-75.479843616485596
0
LWPOLYLINE
5
450
100
AcDbEntity
8
0
100
AcDbPolyline
90
4
70
1
43
0.0
10
25.36328412592411
20
-89.133074283599854
10
22.804102674126625
20
-89.133074283599854
10
22.804102674126625
20
-82.735121250152588
10
25.36328412592411
20
-82.735121250152588
0
LWPOLYLINE
5
451
100
AcDbEntity
8
0
100
AcDbPolyline
90
4
70
1
43
0.0
10
31.761237159371376
20
-85.934097766876221
10
27.9224643856287
20
-85.934097766876221
10
26.003079190850258
20
-84.014713764190674
10
31.761237159371376
20
-84.014713764190674
0
LWPOLYLINE
5
452
100
AcDbEntity
8
0
100
AcDbPolyline
90
4
70
1
43
0.0
10
31.761237159371376
20
-82.095324993133545
10
22.804102674126625
20
-82.095324993133545
10
21.52451254427433
20
-80.175940990447998
10
31.761237159371376
20
-80.175940990447998
0
SPLINE
5
453
100
AcDbEntity
8
0
100
AcDbSpline
70
0
71
2
72
6
73
3
74
0
42
0.000000001
43
0.0000000001
44
0.0000000001
40
0
40
0
40
0
40
1
40
1
40
1
10
40.448633208870888
20
-82.735121250152588
30
0
10
40.448633208870888
20
-82.095324993133545
30
0
10
39.808836951851845
20
-82.095324993133545
30
0
0
LINE
5
454
100
AcDbEntity
8
0
100
AcDbLine
10
39.808836951851845
20
-82.095324993133545
30
0
11
39.808836951851845
21
-80.175940990447998
31
0
0
SPLINE
5
455
100
AcDbEntity
8
0
100
AcDbSpline
70
0
71
2
72
6
73
3
74
0
42
0.000000001
43
0.0000000001
44
0.0000000001
40
0
40
0
40
0
40
1
40
1
40
1
10
39.808836951851845
20
-80.175940990447998
30
0
10
43.007813468575478
20
-80.175940990447998
30
0
10
43.007813468575478
20
-82.735121250152588
30
0
0
LINE
5
456
100
AcDbEntity
8
0
100
AcDbLine
10
43.007813468575478
20
-82.735121250152588
30
0
11
43.007813468575478
21
-86.573894023895264
31
0
0
SPLINE
5
457
100
AcDbEntity
8
0
100
AcDbSpline
70
0
71
2
72
6
73
3
74
0
42
0.000000001
43
0.0000000001
44
0.0000000001
40
0
40
0
40
0
40
1
40
1
40
1
10
43.007813468575478
20
-86.573894023895264
30
0
10
43.007813468575478
20
-89.133074283599854
30
0
10
39.808836951851845
20
-89.133074283599854
30
0
0
LINE
5
458
100
AcDbEntity
8
0
100
AcDbLine
10
39.808836951851852
20
-89.133074283599854
30
0
11
37.249656692147255
21
-89.133074283599854
31
0
0
LINE
5
459
100
AcDbEntity
8
0
100
AcDbLine
10
37.249656692147255
20
-89.133074283599854
30
0
11
37.249656692147255
21
-87.213690280914307
31
0
0
LINE
5
460
100
AcDbEntity
8
0
100
AcDbLine
10
37.249656692147255
20
-87.213690280914307
30
0
11
39.808836951851845
21
-87.213690280914307
31
0
0
SPLINE
5
461
100
AcDbEntity
8
0
100
AcDbSpline
70
0
71
2
72
6
73
3
74
0
42
0.000000001
43
0.0000000001
44
0.0000000001
40
0
40
0
40
0
40
1
40
1
40
1
10
39.808836951851845
20
-87.213690280914307
30
0
10
40.448633208870888
20
-87.213690280914307
30
0
10
40.448633208870888
20
-86.573894023895264
30
0
0
LINE
5
462
100
AcDbEntity
8
0
100
AcDbLine
10
40.448633208870888
20
-86.573894023895264
30
0
11
40.448633208870888
21
-82.735121250152588
31
0
0
SPLINE
5
463
100
AcDbEntity
8
0
100
AcDbSpline
70
0
71
2
72
6
73
3
74
0
42
0.000000001
43
0.0000000001
44
0.0000000001
40
0
40
0
40
0
40
1
40
1
40
1
10
35.970064178109169
20
-86.573894023895264
30
0
10
35.970064178109169
20
-87.213690280914307
30
0
10
36.609860435128212
20
-87.213690280914307
30
0
0
LINE
5
464
100
AcDbEntity
8
0
100
AcDbLine
10
36.609860435128212
20
-87.213690280914307
30
0
11
36.609860435128212
21
-89.133074283599854
31
0
0
SPLINE
5
465
100
AcDbEntity
8
0
100
AcDbSpline
70
0
71
2
72
6
73
3
74
0
42
0.000000001
43
0.0000000001
44
0.0000000001
40
0
40
0
40
0
40
1
40
1
40
1
10
36.609860435128212
20
-89.133074283599854
30
0
10
33.410883918404579
20
-89.133074283599854
30
0
10
33.410883918404579
20
-86.573894023895264
30
0
0
LINE
5
466
100
AcDbEntity
8
0
100
AcDbLine
10
33.410883918404579
20
-86.573894023895264
30
0
11
33.410883918404579
21
-82.735121250152588
31
0
0
SPLINE
5
467
100
AcDbEntity
8
0
100
AcDbSpline
70
0
71
2
72
6
73
3
74
0
42
0.000000001
43
0.0000000001
44
0.0000000001
40
0
40
0
40
0
40
1
40
1
40
1
10
33.410883918404579
20
-82.735121250152588
30
0
10
33.410883918404579
20
-80.175940990447998
30
0
10
36.609860435128212
20
-80.175940990447998
30
0
0
LINE
5
468
100
AcDbEntity
8
0
100
AcDbLine
10
36.609860435128205
20
-80.175940990447998
30
0
11
39.169040694832802
21
-80.175940990447998
31
0
0
LINE
5
469
100
AcDbEntity
8
0
100
AcDbLine
10
39.169040694832802
20
-80.175940990447998
30
0
11
39.169040694832802
21
-82.095324993133545
31
0
0
LINE
5
470
100
AcDbEntity
8
0
100
AcDbLine
10
39.169040694832802
20
-82.095324993133545
30
0
11
36.609860435128212
21
-82.095324993133545
31
0
0
SPLINE
5
471
100
AcDbEntity
8
0
100
AcDbSpline
70
0
71
2
72
6
73
3
74
0
42
0.000000001
43
0.0000000001
44
0.0000000001
40
0
40
0
40
0
40
1
40
1
40
1
10
36.609860435128212
20
-82.095324993133545
30
0
10
35.970064178109169
20
-82.095324993133545
30
0
10
35.970064178109169
20
-82.735121250152588
30
0
0
LINE
5
472
100
AcDbEntity
8
0
100
AcDbLine
10
35.970064178109169
20
-82.735121250152588
30
0
11
35.970064178109169
21
-86.573894023895264
31
0
0
LINE
5
473
100
AcDbEntity
8
0
100
AcDbLine
10
51.695209518074989
20
-86.573894023895264
30
0
11
51.695209518074989
21
-80.175940990447998
31
0
0
LINE
5
474
100
AcDbEntity
8
0
100
AcDbLine
10
51.695209518074989
20
-80.175940990447998
30
0
11
54.254389777779579
21
-80.175940990447998
31
0
0
LINE
5
475
100
AcDbEntity
8
0
100
AcDbLine
10
54.254389777779579
20
-80.175940990447998
30
0
11
54.254389777779579
21
-86.573894023895264
31
0
0
SPLINE
5
476
100
AcDbEntity
8
0
100
AcDbSpline
70
0
71
2
72
6
73
3
74
0
42
0.000000001
43
0.0000000001
44
0.0000000001
40
0
40
0
40
0
40
1
40
1
40
1
10
54.254389777779579
20
-86.573894023895264
30
0
10
54.254389777779579
20
-89.133074283599854
30
0
10
51.055413261055946
20
-89.133074283599854
30
0
0
LINE
5
477
100
AcDbEntity
8
0
100
AcDbLine
10
51.055413261055946
20
-89.133074283599854
30
0
11
48.496233001351357
21
-89.133074283599854
31
0
0
LINE
5
478
100
AcDbEntity
8
0
100
AcDbLine
10
48.496233001351357
20
-89.133074283599854
30
0
11
48.496233001351357
21
-87.213690280914307
31
0
0
LINE
5
479
100
AcDbEntity
8
0
100
AcDbLine
10
48.496233001351357
20
-87.213690280914307
30
0
11
51.055413261055946
21
-87.213690280914307
31
0
0
SPLINE
5
480
100
AcDbEntity
8
0
100
AcDbSpline
70
0
71
2
72
6
73
3
74
0
42
0.000000001
43
0.0000000001
44
0.0000000001
40
0
40
0
40
0
40
1
40
1
40
1
10
51.055413261055946
20
-87.213690280914307
30
0
10
51.695209518074989
20
-87.213690280914307
30
0
10
51.695209518074989
20
-86.573894023895264
30
0
0
LINE
5
481
100
AcDbEntity
8
0
100
AcDbLine
10
44.657460227608681
20
-86.573894023895264
30
0
11
44.657460227608681
21
-80.175940990447998
31
0
0
LINE
5
482
100
AcDbEntity
8
0
100
AcDbLine
10
44.657460227608681
20
-80.175940990447998
30
0
11
47.216640487313271
21
-80.175940990447998
31
0
0
LINE
5
483
100
AcDbEntity
8
0
100
AcDbLine
10
47.216640487313271
20
-80.175940990447998
30
0
11
47.216640487313271
21
-86.573894023895264
31
0
0
SPLINE
5
484
100
AcDbEntity
8
0
100
AcDbSpline
70
0
71
2
72
6
73
3
74
0
42
0.000000001
43
0.0000000001
44
0.0000000001
40
0
40
0
40
0
40
1
40
1
40
1
10
47.216640487313271
20
-86.573894023895264
30
0
10
47.216640487313271
20
-87.213690280914307
30
0
10
47.856436744332314
20
-87.213690280914307
30
0
0
LINE
5
485
100
AcDbEntity
8
0
100
AcDbLine
10
47.856436744332314
20
-87.213690280914307
30
0
11
47.856436744332314
21
-89.133074283599854
31
0
0
SPLINE
5
486
100
AcDbEntity
8
0
100
AcDbSpline
70
0
71
2
72
6
73
3
74
0
42
0.000000001
43
0.0000000001
44
0.0000000001
40
0
40
0
40
0
40
1
40
1
40
1
10
47.856436744332314
20
-89.133074283599854
30
0
10
44.657460227608681
20
-89.133074283599854
30
0
10
44.657460227608681
20
-86.573894023895264
30
0
0
LWPOLYLINE
5
487
100
AcDbEntity
8
0
100
AcDbPolyline
90
4
70
1
43
0.0
10
58.463216796517372
20
-89.133074283599854
10
55.9040317684412
20
-89.133074283599854
10
55.9040317684412
20
-82.735121250152588
10
58.463216796517372
20
-82.735121250152588
0
LINE
5
488
100
AcDbEntity
8
0
100
AcDbLine
10
62.301989570260048
20
-82.095324993133545
30
0
11
55.9040317684412
21
-82.095324993133545
31
0
0
LINE
5
489
100
AcDbEntity
8
0
100
AcDbLine
10
55.9040317684412
20
-82.095324993133545
30
0
11
55.264236703515053
21
-81.135632395744324
31
0
0
LINE
5
490
100
AcDbEntity
8
0
100
AcDbLine
10
55.9040317684412
20
-80.175939798355103
30
0
11
62.301989570260048
21
-80.175940990447998
31
0
0
SPLINE
5
491
100
AcDbEntity
8
0
100
AcDbSpline
70
0
71
2
72
6
73
3
74
0
42
0.000000001
43
0.0000000001
44
0.0000000001
40
0
40
0
40
0
40
1
40
1
40
1
10
62.301989570260048
20
-80.175940990447998
30
0
10
65.500966086983681
20
-80.175940990447998
30
0
10
65.500966086983681
20
-82.735121250152588
30
0
0
LINE
5
492
100
AcDbEntity
8
0
100
AcDbLine
10
65.500966086983681
20
-82.735121250152588
30
0
11
65.500966086983681
21
-83.374917507171631
31
0
0
SPLINE
5
493
100
AcDbEntity
8
0
100
AcDbSpline
70
0
71
2
72
6
73
3
74
0
42
0.000000001
43
0.0000000001
44
0.0000000001
40
0
40
0
40
0
40
1
40
1
40
1
10
65.500966086983681
20
-83.374917507171631
30
0
10
65.500966086983681
20
-85.428659915924072
30
0
10
63.440824523568153
20
-85.831730365753174
30
0
0
LINE
5
494
100
AcDbEntity
8
0
100
AcDbLine
10
63.440824523568153
20
-85.831730365753174
30
0
11
65.500966086983681
21
-89.133074283599854
31
0
0
LINE
5
495
100
AcDbEntity
8
0
100
AcDbLine
10
65.500966086983681
20
-89.133074283599854
30
0
11
62.301989570260048
21
-89.133074283599854
31
0
0
LINE
5
496
100
AcDbEntity
8
0
100
AcDbLine
10
62.301989570260048
20
-89.133074283599854
30
0
11
59.103008285164833
21
-84.014713764190674
31
0
0
LINE
5
497
100
AcDbEntity
8
0
100
AcDbLine
10
59.103008285164833
20
-84.014713764190674
30
0
11
62.301989570260048
21
-84.014713764190674
31
0
0
SPLINE
5
498
100
AcDbEntity
8
0
100
AcDbSpline
70
0
71
2
72
6
73
3
74
0
42
0.000000001
43
0.0000000001
44
0.0000000001
40
0
40
0
40
0
40
1
40
1
40
1
10
62.301989570260048
20
-84.014713764190674
30
0
10
62.941781058907509
20
-84.014713764190674
30
0
10
62.941781058907509
20
-83.374917507171631
30
0
0
LINE
5
499
100
AcDbEntity
8
0
100
AcDbLine
10
62.941781058907509
20
-83.374917507171631
30
0
11
62.941781058907509
21
-82.735121250152588
31
0
0
SPLINE
5
500
100
AcDbEntity
8
0
100
AcDbSpline
70
0
71
2
72
6
73
3
74
0
42
0.000000001
43
0.0000000001
44
0.0000000001
40
0
40
0
40
0
40
1
40
1
40
1
10
62.941781058907509
20
-82.735121250152588
30
0
10
62.941781058907509
20
-82.095324993133545
30
0
10
62.301989570260048
20
-82.095324993133545
30
0
0
LWPOLYLINE
5
501
100
AcDbEntity
8
0
100
AcDbPolyline
90
4
70
1
43
0.0
10
76.107746139168739
20
-82.095324993133545
10
67.150612846016884
20
-82.095324993133545
10
65.871020331978798
20
-80.175940990447998
10
76.107746139168739
20
-80.175940990447998
0
LWPOLYLINE
5
502
100
AcDbEntity
8
0
100
AcDbPolyline
90
4
70
1
43
0.0
10
70.349589362740517
20
-82.735121250152588
10
72.908769622445107
20
-82.735121250152588
10
72.908769622445107
20
-89.133074283599854
10
70.349589362740517
20
-89.133074283599854
0
LWPOLYLINE
5
503
100
AcDbEntity
8
0
100
AcDbPolyline
90
4
70
1
43
0.0
10
82.619839683175087
20
-82.00575590133667
10
84.059377685189247
20
-80.175940990447998
10
87.386313453316689
20
-80.175940990447998
10
84.283305183053017
20
-84.123475551605225
0
LWPOLYLINE
5
504
100
AcDbEntity
8
0
100
AcDbPolyline
90
7
70
1
43
0.0
10
80.924378409981728
20
-85.140750408172607
10
77.021628394722939
20
-80.175940990447998
10
80.34856416285038
20
-80.175940990447998
10
83.867436423897743
20
-84.654505252838135
10
83.483563438057899
20
-85.140750408172607
10
83.483563438057899
20
-89.133074283599854
10
80.924378409981728
20
-89.133074283599854
0
LWPOLYLINE
5
505
100
AcDbEntity
8
0
100
AcDbPolyline
90
4
70
1
43
0.0
10
94.831472411751747
20
-89.133074283599854
10
92.272296920418739
20
-89.133074283599854
10
92.272296920418739
20
-82.735121250152588
10
94.831472411751747
20
-82.735121250152588
0
LWPOLYLINE
5
506
100
AcDbEntity
8
0
100
AcDbPolyline
90
4
70
1
43
0.0
10
101.22942544519901
20
-85.934097766876221
10
97.390657439827919
20
-85.934097766876221
10
95.471273437142372
20
-84.014713764190674
10
101.22942544519901
20
-84.014713764190674
0
LWPOLYLINE
5
507
100
AcDbEntity
8
0
100
AcDbPolyline
90
4
70
1
43
0.0
10
101.22942544519901
20
-82.095324993133545
10
92.272296920418739
20
-82.095324993133545
10
90.992704406380653
20
-80.175940990447998
10
101.22942544519901
20
-80.175940990447998
0
LWPOLYLINE
5
508
100
AcDbEntity
8
0
100
AcDbPolyline
90
4
70
1
43
0.0
10
102.87907220423222
20
-80.175940990447998
10
105.43825723230839
20
-80.175940990447998
10
105.43825723230839
20
-89.133074283599854
10
102.87907220423222
20
-89.133074283599854
0
LWPOLYLINE
5
509
100
AcDbEntity
8
0
100
AcDbPolyline
90
4
70
1
43
0.0
10
109.64708901941776
20
-89.133074283599854
10
107.08790399134159
20
-89.133074283599854
10
107.08790399134159
20
-82.735121250152588
10
109.64708901941776
20
-82.735121250152588
0
LWPOLYLINE
5
510
100
AcDbEntity
8
0
100
AcDbPolyline
90
4
70
1
43
0.0
10
116.04504205286503
20
-85.934097766876221
10
112.20627404749393
20
-85.934097766876221
10
110.28689004480839
20
-84.014713764190674
10
116.04504205286503
20
-84.014713764190674
0
LWPOLYLINE
5
511
100
AcDbEntity
8
0
100
AcDbPolyline
90
5
70
1
43
0.0
10
116.04504205286503
20
-82.095324993133545
10
107.08790399134159
20
-82.095324993133545
10
106.44810892641544
20
-81.135632395744324
10
107.08790399134159
20
-80.175939798355103
10
116.04504205286503
20
-80.175940990447998
0
LINE
5
512
100
AcDbEntity
8
0
100
AcDbLine
10
126.65182687342167
20
-82.095324993133545
30
0
11
117.69468881189823
21
-82.095324993133545
31
0
0
LINE
5
513
100
AcDbEntity
8
0
100
AcDbLine
10
117.69468881189823
20
-80.175939798355103
30
0
11
126.65182687342167
21
-80.175940990447998
31
0
0
LINE
5
514
100
AcDbEntity
8
0
100
AcDbLine
10
126.65182687342167
20
-80.175940990447998
30
0
11
126.65182687342167
21
-82.095324993133545
31
0
0
LWPOLYLINE
5
515
100
AcDbEntity
8
0
100
AcDbPolyline
90
4
70
1
43
0.0
10
120.89367486536503
20
-82.735121250152588
10
123.45284081995487
20
-82.735121250152588
10
123.45284081995487
20
-89.133074283599854
10
120.89367486536503
20
-89.133074283599854
0
LWPOLYLINE
5
516
100
AcDbEntity
8
0
100
AcDbPolyline
90
4
70
1
43
0.0
10
133.16391564905643
20
-82.00575590133667
10
134.60344888269901
20
-80.175940990447998
10
137.9303989559412
20
-80.175940990447998
10
134.82739068567753
20
-84.123475551605225
0
LWPOLYLINE
5
517
100
AcDbEntity
8
0
100
AcDbPolyline
90
7
70
1
43
0.0
10
131.46845437586308
20
-85.140750408172607
10
127.56571389734745
20
-80.175940990447998
10
130.89264489710331
20
-80.175940990447998
10
134.41151238977909
20
-84.654505252838135
10
134.02763940393925
20
-85.140750408172607
10
134.02763940393925
20
-89.133074283599854
10
131.46845437586308
20
-89.133074283599854
0
LWPOLYLINE
5
518
100
AcDbEntity
8
0
100
AcDbPolyline
90
4
70
1
43
0.0
10
145.37556268274784
20
-89.133074283599854
10
142.81637765467167
20
-89.133074283599854
10
142.81637765467167
20
-82.735121250152588
10
145.37556268274784
20
-82.735121250152588
0
LWPOLYLINE
5
519
100
AcDbEntity
8
0
100
AcDbPolyline
90
4
70
1
43
0.0
10
151.77351571619511
20
-85.934097766876221
10
147.93474771082401
20
-85.934097766876221
10
146.01536370813847
20
-84.014713764190674
10
151.77351571619511
20
-84.014713764190674
0
LWPOLYLINE
5
520
100
AcDbEntity
8
0
100
AcDbPolyline
90
4
70
1
43
0.0
10
151.77351571619511
20
-82.095324993133545
10
142.81637765467167
20
-82.095324993133545
10
141.53679467737675
20
-80.175940990447998
10
151.77351571619511
20
-80.175940990447998
0
LWPOLYLINE
5
521
100
AcDbEntity
8
0
100
AcDbPolyline
90
4
70
1
43
0.0
10
153.42314340174198
20
-80.175940990447998
10
155.98232842981815
20
-80.175940990447998
10
155.98232842981815
20
-89.133074283599854
10
153.42314340174198
20
-89.133074283599854
0
LWPOLYLINE
5
522
100
AcDbEntity
8
0
100
AcDbPolyline
90
4
70
1
43
0.0
10
163.43493081629276
20
-87.623155117034912
10
162.11054421961308
20
-90.175936222076416
10
156.9282016903162
20
-80.175940990447998
10
159.67932321131229
20
-80.175940990447998
0
LWPOLYLINE
5
523
100
AcDbEntity
8
0
100
AcDbPolyline
90
4
70
1
43
0.0
10
162.488027587533
20
-84.219448566436768
10
164.54176522791386
20
-80.175940990447998
10
167.29288674890995
20
-80.175940990447998
10
163.82519342005253
20
-86.868197917938232
0
LWPOLYLINE
5
524
100
AcDbEntity
8
0
100
AcDbPolyline
90
6
70
1
43
0.0
10
168.23877908289433
20
-82.735121250152588
10
170.79794503748417
20
-82.735121250152588
10
170.79794503748417
20
-87.213690280914307
10
177.19589807093143
20
-87.213690280914307
10
177.19589807093143
20
-89.133074283599854
10
168.23877908289433
20
-89.133074283599854
0
LWPOLYLINE
5
525
100
AcDbEntity
8
0
100
AcDbPolyline
90
4
70
1
43
0.0
10
177.19589807093143
20
-85.934097766876221
10
173.35713006556034
20
-85.934097766876221
10
171.43774606287479
20
-84.014713764190674
10
177.19589807093143
20
-84.014713764190674
0
LINE
5
526
100
AcDbEntity
8
0
100
AcDbLine
10
37.319010272622108
20
-25.563020706176758
30
0
11
37.652731910347939
21
-25.563020706176758
31
0
0
LWPOLYLINE
5
527
100
AcDbEntity
8
0
100
AcDbPolyline
90
5
70
1
43
0.0
10
37.958805337548256
20
-26.522713303565979
10
38.598600402474403
20
-25.563020706176758
10
47.555733695626259
20
-25.563020706176758
10
47.555733695626259
20
-27.4824059009552
10
38.598600402474403
20
-27.4824059009552
0
LINE
5
528
100
AcDbEntity
8
0
100
AcDbLine
10
115.4543886333704
20
-25.563020706176758
30
0
11
124.41152192652225
21
-25.563020706176758
31
0
0
LINE
5
529
100
AcDbEntity
8
0
100
AcDbLine
10
124.41152192652225
20
-27.4824059009552
30
0
11
115.4543886333704
21
-27.4824059009552
31
0
0
LINE
5
530
100
AcDbEntity
8
0
100
AcDbLine
10
115.4543886333704
20
-27.4824059009552
30
0
11
114.81459356844425
21
-26.522713303565979
31
0
0
LINE
5
531
100
AcDbEntity
8
0
100
AcDbLine
10
114.81459356844425
20
-26.522713303565979
30
0
11
115.4543886333704
21
-25.563020706176758
31
0
0
LINE
5
532
100
AcDbEntity
8
0
100
AcDbLine
10
124.41152192652225
20
-25.563020706176758
30
0
11
124.41152192652225
21
-27.4824059009552
31
0
0
LINE
5
533
100
AcDbEntity
8
0
100
AcDbLine
10
149.72782231867313
20
-39.216252565383911
30
0
11
158.68495561182499
21
-39.216252565383911
31
0
0
LINE
5
534
100
AcDbEntity
8
0
100
AcDbLine
10
149.08802725374699
20
-40.175945162773132
30
0
11
149.72782231867313
21
-39.216252565383911
31
0
0
LINE
5
535
100
AcDbEntity
8
0
100
AcDbLine
10
149.72782231867313
20
-41.135637760162354
30
0
11
149.08802725374699
21
-40.175945162773132
31
0
0
LINE
5
536
100
AcDbEntity
8
0
100
AcDbLine
10
158.68495561182499
20
-41.135637760162354
30
0
11
149.72782231867313
21
-41.135637760162354
31
0
0
LINE
5
537
100
AcDbEntity
8
0
100
AcDbLine
10
158.68495561182499
20
-39.216252565383911
30
0
11
158.68495561182499
21
-41.135637760162354
31
0
0
LINE
5
538
100
AcDbEntity
8
0
100
AcDbLine
10
68.45156766474247
20
-52.869478464126587
30
0
11
77.408700957894325
21
-52.869478464126587
31
0
0
LINE
5
539
100
AcDbEntity
8
0
100
AcDbLine
10
67.811772599816322
20
-53.829171061515808
30
0
11
68.45156766474247
21
-52.869478464126587
31
0
0
LINE
5
540
100
AcDbEntity
8
0
100
AcDbLine
10
68.45156766474247
20
-54.788863658905029
30
0
11
67.811772599816322
21
-53.829171061515808
31
0
0
LINE
5
541
100
AcDbEntity
8
0
100
AcDbLine
10
77.408700957894325
20
-54.788863658905029
30
0
11
68.45156766474247
21
-54.788863658905029
31
0
0
LINE
5
542
100
AcDbEntity
8
0
100
AcDbLine
10
77.408700957894325
20
-52.869478464126587
30
0
11
77.408700957894325
21
-54.788863658905029
31
0
0
LINE
5
543
100
AcDbEntity
8
0
100
AcDbLine
10
39.823804870247841
20
-52.869478464126587
30
0
11
48.780938163399696
21
-52.869478464126587
31
0
0
LINE
5
544
100
AcDbEntity
8
0
100
AcDbLine
10
39.184009805321693
20
-53.829171061515808
30
0
11
39.823804870247841
21
-52.869478464126587
31
0
0
LINE
5
545
100
AcDbEntity
8
0
100
AcDbLine
10
39.823804870247841
20
-54.788863658905029
30
0
11
39.184009805321693
21
-53.829171061515808
31
0
0
LINE
5
546
100
AcDbEntity
8
0
100
AcDbLine
10
48.780938163399696
20
-54.788863658905029
30
0
11
39.823804870247841
21
-54.788863658905029
31
0
0
LINE
5
547
100
AcDbEntity
8
0
100
AcDbLine
10
48.780938163399696
20
-52.869478464126587
30
0
11
48.780938163399696
21
-54.788863658905029
31
0
0
LINE
5
548
100
AcDbEntity
8
0
100
AcDbLine
10
60.643378272652626
20
-66.522709131240845
30
0
11
69.600511565804482
21
-66.522709131240845
31
0
0
LINE
5
549
100
AcDbEntity
8
0
100
AcDbLine
10
69.600511565804482
20
-66.522709131240845
30
0
11
69.600511565804482
21
-68.442094326019287
31
0
0
LINE
5
550
100
AcDbEntity
8
0
100
AcDbLine
10
69.600511565804482
20
-68.442094326019287
30
0
11
60.643378272652626
21
-68.442094326019287
31
0
0
LINE
5
551
100
AcDbEntity
8
0
100
AcDbLine
10
60.643378272652626
20
-68.442094326019287
30
0
11
60.003583207726479
21
-67.482401728630066
31
0
0
LINE
5
552
100
AcDbEntity
8
0
100
AcDbLine
10
60.003583207726479
20
-67.482401728630066
30
0
11
60.643378272652626
21
-66.522709131240845
31
0
0
LINE
5
553
100
AcDbEntity
8
0
100
AcDbLine
10
168.23876477777958
20
-80.175939798355103
30
0
11
177.19589807093143
21
-80.175939798355103
31
0
0
LINE
5
554
100
AcDbEntity
8
0
100
AcDbLine
10
167.59896971285343
20
-81.135632395744324
30
0
11
168.23876477777958
21
-80.175939798355103
31
0
0
LINE
5
555
100
AcDbEntity
8
0
100
AcDbLine
10
168.23876477777958
20
-82.095324993133545
30
0
11
167.59896971285343
21
-81.135632395744324
31
0
0
LINE
5
556
100
AcDbEntity
8
0
100
AcDbLine
10
177.19589807093143
20
-82.095324993133545
30
0
11
168.23876477777958
21
-82.095324993133545
31
0
0
LINE
5
557
100
AcDbEntity
8
0
100
AcDbLine
10
177.19589807093143
20
-80.175939798355103
30
0
11
177.19589807093143
21
-82.095324993133545
31
0
0
LINE
5
558
100
AcDbEntity
8
0
100
AcDbLine
10
33.620991483330727
20
-12.869482636451721
30
0
11
34.260786548256874
21
-11.9097900390625
31
0
0
LINE
5
559
100
AcDbEntity
8
0
100
AcDbLine
10
34.260786548256874
20
-13.829175233840942
30
0
11
33.620991483330727
21
-12.869482636451721
31
0
0
LINE
5
560
100
AcDbEntity
8
0
100
AcDbLine
10
109.18542124330997
20
-12.869482636451721
30
0
11
109.82521630823612
21
-11.9097900390625
31
0
0
LINE
5
561
100
AcDbEntity
8
0
100
AcDbLine
10
109.82521630823612
20
-13.829175233840942
30
0
11
109.18542124330997
21
-12.869482636451721
31
0
0
LINE
5
562
100
AcDbEntity
8
0
100
AcDbLine
10
48.747235225575551
20
3.5599451820480499
30
0
11
49.387030290501698
21
4.5196377794372689
31
0
0
LINE
5
563
100
AcDbEntity
8
0
100
AcDbLine
10
49.387030290501684
20
2.6002525846588287
30
0
11
48.747235225575551
21
3.5599451820480499
31
0
0
LINE
5
564
100
AcDbEntity
8
0
100
AcDbLine
10
121.07179261744022
20
-13.829175233840942
30
0
11
120.43199755251408
21
-12.869482636451721
31
0
0
LINE
5
565
100
AcDbEntity
8
0
100
AcDbLine
10
120.43199755251408
20
-12.869482636451721
30
0
11
121.07179261744022
21
-11.909790039062502
31
0
0
LINE
5
566
100
AcDbEntity
8
0
100
AcDbLine
10
131.03877283632755
20
-12.869482636451721
30
0
11
131.6785679012537
21
-11.909790039062502
31
0
0
LINE
5
567
100
AcDbEntity
8
0
100
AcDbLine
10
178.36568094789982
20
-12.869482636451721
30
0
11
179.00547601282597
21
-11.9097900390625
31
0
0
LINE
5
568
100
AcDbEntity
8
0
100
AcDbLine
10
179.00547601282597
20
-13.829175233840942
30
0
11
178.36568094789982
21
-12.869482636451721
31
0
0
LINE
5
569
100
AcDbEntity
8
0
100
AcDbLine
10
94.2408237606287
20
-27.4824059009552
30
0
11
93.601028695702553
21
-26.522713303565979
31
0
0
LINE
5
570
100
AcDbEntity
8
0
100
AcDbLine
10
93.601028695702553
20
-26.522713303565979
30
0
11
94.2408237606287
21
-25.563020706176758
31
0
0
LINE
5
571
100
AcDbEntity
8
0
100
AcDbLine
10
57.140499129891396
20
-41.135637760162354
30
0
11
56.500704064965248
21
-40.175945162773132
31
0
0
LINE
5
572
100
AcDbEntity
8
0
100
AcDbLine
10
56.500704064965248
20
-40.175945162773132
30
0
11
57.140499129891396
21
-39.216252565383911
31
0
0
LINE
5
573
100
AcDbEntity
8
0
100
AcDbLine
10
81.974278464913368
20
-41.135637760162354
30
0
11
81.334483399987221
21
-40.175945162773132
31
0
0
LINE
5
574
100
AcDbEntity
8
0
100
AcDbLine
10
81.334483399987221
20
-40.175945162773132
30
0
11
81.974278464913368
21
-39.216252565383911
31
0
0
LINE
5
575
100
AcDbEntity
8
0
100
AcDbLine
10
165.39487458765507
20
-54.788863658905029
30
0
11
164.75507952272892
21
-53.829171061515808
31
0
0
LINE
5
576
100
AcDbEntity
8
0
100
AcDbLine
10
164.75507952272892
20
-53.829171061515808
30
0
11
165.39487458765507
21
-52.869478464126587
31
0
0
LINE
5
577
100
AcDbEntity
8
0
100
AcDbLine
10
154.78809930384159
20
-54.788863658905029
30
0
11
154.14830423891544
21
-53.829171061515808
31
0
0
LINE
5
578
100
AcDbEntity
8
0
100
AcDbLine
10
154.14830423891544
20
-53.829171061515808
30
0
11
154.78809930384159
21
-52.869478464126587
31
0
0
LINE
5
579
100
AcDbEntity
8
0
100
AcDbLine
10
133.57453919947147
20
-54.788863658905029
30
0
11
132.93474413454533
21
-53.829171061515808
31
0
0
LINE
5
580
100
AcDbEntity
8
0
100
AcDbLine
10
132.93474413454533
20
-53.829171061515808
30
0
11
133.57453919947147
21
-52.869478464126587
31
0
0
LINE
5
581
100
AcDbEntity
8
0
100
AcDbLine
10
133.04082132875919
20
-67.482401728630066
30
0
11
133.68061639368534
21
-66.522709131240845
31
0
0
LINE
5
582
100
AcDbEntity
8
0
100
AcDbLine
10
55.264236703515053
20
-81.135632395744324
30
0
11
55.9040317684412
21
-80.175939798355103
31
0
0
LINE
5
583
100
AcDbEntity
8
0
100
AcDbLine
10
117.05489374697208
20
-81.135632395744324
30
0
11
117.69468881189823
21
-80.175939798355103
31
0
0
LINE
5
584
100
AcDbEntity
8
0
100
AcDbLine
10
117.69468881189823
20
-82.095324993133545
30
0
11
117.05489374697208
21
-81.135632395744324
31
0
0
LWPOLYLINE
5
585
100
AcDbEntity
8
0
100
AcDbPolyline
90
4
70
1
43
0.0
10
13.895211331546307
20
-2.4131310508134707
10
18.693675957620144
20
-7.2115958258989199
10
18.693675957620144
20
-8.8110834882142886
10
13.895211331546307
20
-4.0126193091752871
0
LWPOLYLINE
5
586
100
AcDbEntity
8
0
100
AcDbPolyline
90
4
70
1
43
0.0
10
17.414085231721401
20
-5.4841483161332949
10
17.414085231721401
20
-3.3728239462259157
10
18.693675957620144
20
-3.3728239462259157
10
18.693675957620144
20
-6.7637390420320376
0
LWPOLYLINE
5
587
100
AcDbEntity
8
0
100
AcDbPolyline
90
4
70
1
43
0.0
10
15.174801908433437
20
-5.7400662228944643
10
15.174801908433437
20
-7.8513908908250674
10
13.895211331546307
20
-7.8513908908250674
10
13.895211331546307
20
-4.4604760930421694
0
LWPOLYLINE
5
588
100
AcDbEntity
8
0
100
AcDbPolyline
90
4
70
1
43
0.0
10
20.027329288423061
20
-3.3728239462259157
10
21.306920014321804
20
-3.3728239462259157
10
21.306920014321804
20
-7.8513908908250674
10
20.027329288423061
20
-7.8513908908250674
0
LWPOLYLINE
5
589
100
AcDbEntity
8
0
100
AcDbPolyline
90
4
70
1
43
0.0
10
23.920162282884121
20
-7.8513908908250674
10
22.640572153031826
20
-7.8513908908250674
10
22.640572153031826
20
-4.6524146721246584
10
23.920162282884121
20
-4.6524146721246584
0
LINE
5
590
100
AcDbEntity
8
0
100
AcDbLine
10
25.839548669755459
20
-4.3325168416383608
30
0
11
22.640572153031826
21
-4.3325168416383608
31
0
0
LINE
5
591
100
AcDbEntity
8
0
100
AcDbLine
10
22.640572153031826
20
-4.3325168416383608
30
0
11
22.640572153031826
21
-3.3728239462259157
31
0
0
LINE
5
592
100
AcDbEntity
8
0
100
AcDbLine
10
22.640572153031826
20
-3.3728239462259157
30
0
11
25.839548669755459
21
-3.3728239462259157
31
0
0
SPLINE
5
593
100
AcDbEntity
8
0
100
AcDbSpline
70
0
71
2
72
6
73
3
74
0
42
0.000000001
43
0.0000000001
44
0.0000000001
40
0
40
0
40
0
40
1
40
1
40
1
10
25.839548669755459
20
-3.3728239462259157
30
0
10
27.439036928117275
20
-3.3728239462259157
30
0
10
27.439036928117275
20
-4.6524146721246584
30
0
0
LINE
5
594
100
AcDbEntity
8
0
100
AcDbLine
10
27.439036928117275
20
-4.6524146721246593
30
0
11
27.439036928117275
21
-4.9723122045877322
31
0
0
SPLINE
5
595
100
AcDbEntity
8
0
100
AcDbSpline
70
0
71
2
72
6
73
3
74
0
42
0.000000001
43
0.0000000001
44
0.0000000001
40
0
40
0
40
0
40
1
40
1
40
1
10
27.439036928117275
20
-4.9723122045877322
30
0
10
27.439036928117275
20
-5.9991837069871767
30
0
10
26.408966146409512
20
-6.2007189319017275
30
0
0
LINE
5
596
100
AcDbEntity
8
0
100
AcDbLine
10
26.408966146409512
20
-6.2007189319017275
30
0
11
27.439036928117275
21
-7.8513908908250674
31
0
0
LINE
5
597
100
AcDbEntity
8
0
100
AcDbLine
10
27.439036928117275
20
-7.8513908908250674
30
0
11
25.839548669755459
21
-7.8513908908250674
31
0
0
LINE
5
598
100
AcDbEntity
8
0
100
AcDbLine
10
25.839548669755459
20
-7.8513908908250674
30
0
11
24.240060411393642
21
-5.2922100350740298
31
0
0
LINE
5
599
100
AcDbEntity
8
0
100
AcDbLine
10
24.240060411393642
20
-5.2922100350740298
30
0
11
25.839548669755459
21
-5.2922100350740298
31
0
0
SPLINE
5
600
100
AcDbEntity
8
0
100
AcDbSpline
70
0
71
2
72
6
73
3
74
0
42
0.000000001
43
0.0000000001
44
0.0000000001
40
0
40
0
40
0
40
1
40
1
40
1
10
25.839548669755459
20
-5.2922100350740298
30
0
10
26.15944679826498
20
-5.2922100350740298
30
0
10
26.15944679826498
20
-4.9723122045877322
30
0
0
LINE
5
601
100
AcDbEntity
8
0
100
AcDbLine
10
26.15944679826498
20
-4.9723122045877322
30
0
11
26.15944679826498
21
-4.6524146721246584
31
0
0
SPLINE
5
602
100
AcDbEntity
8
0
100
AcDbSpline
70
0
71
2
72
6
73
3
74
0
42
0.000000001
43
0.0000000001
44
0.0000000001
40
0
40
0
40
0
40
1
40
1
40
1
10
26.15944679826498
20
-4.6524146721246584
30
0
10
26.15944679826498
20
-4.3325168416383608
30
0
10
25.839548669755459
20
-4.3325168416383608
30
0
0
LWPOLYLINE
5
603
100
AcDbEntity
8
0
100
AcDbPolyline
90
7
70
1
43
0.0
10
30.05227979272604
20
-5.2858120725038393
10
30.05227979272604
20
-7.8513908908250674
10
28.772689662873745
20
-7.8513908908250674
10
28.772689662873745
20
-3.3728239462259157
10
30.436157546937466
20
-3.3728239462259157
10
32.313955388963223
20
-7.0964324996354922
10
31.651766858994961
20
-8.3728242442491396
0
LWPOLYLINE
5
604
100
AcDbEntity
8
0
100
AcDbPolyline
90
7
70
1
43
0.0
10
34.530847631394863
20
-3.3728239462259157
10
34.530847631394863
20
-7.8513908908250674
10
33.251255117356777
20
-7.8513908908250674
10
33.251255117356777
20
-5.2858120725038393
10
32.509093843400478
20
-6.7189533040407046
10
31.840508542954922
20
-5.3945768401506289
10
32.867379747331142
20
-3.3728239462259157
0
LWPOLYLINE
5
605
100
AcDbEntity
8
0
100
AcDbPolyline
90
4
70
1
43
0.0
10
40.343068204820156
20
-4.3325168416383608
10
35.864501558244228
20
-4.3325168416383608
10
35.864501558244228
20
-3.3728239462259157
10
40.343068204820156
20
-3.3728239462259157
0
LWPOLYLINE
5
606
100
AcDbEntity
8
0
100
AcDbPolyline
90
6
70
1
43
0.0
10
35.864501558244228
20
-4.6524146721246584
10
37.144091688096523
20
-4.6524146721246584
10
37.144091688096523
20
-6.8916982934358462
10
40.343068204820156
20
-6.8916982934358462
10
40.343068204820156
20
-7.8513908908250674
10
35.864501558244228
20
-7.8513908908250674
0
LWPOLYLINE
5
607
100
AcDbEntity
8
0
100
AcDbPolyline
90
4
70
1
43
0.0
10
40.343068204820156
20
-6.251902632463251
10
38.103786073625088
20
-6.251902632463251
10
37.463989816606045
20
-5.2922100350740298
10
40.343068204820156
20
-5.2922100350740298
0
LWPOLYLINE
5
608
100
AcDbEntity
8
0
100
AcDbPolyline
90
4
70
1
43
0.0
10
46.155288778245449
20
-4.3325168416383608
10
41.676722131669521
20
-4.3325168416383608
10
41.676722131669521
20
-3.3728239462259157
10
46.155288778245449
20
-3.3728239462259157
0
LWPOLYLINE
5
609
100
AcDbEntity
8
0
100
AcDbPolyline
90
6
70
1
43
0.0
10
41.676722131669521
20
-4.6524146721246584
10
42.956312261521816
20
-4.6524146721246584
10
42.956312261521816
20
-6.8916982934358462
10
46.155288778245449
20
-6.8916982934358462
10
46.155288778245449
20
-7.8513908908250674
10
41.676722131669521
20
-7.8513908908250674
0
LWPOLYLINE
5
610
100
AcDbEntity
8
0
100
AcDbPolyline
90
4
70
1
43
0.0
10
46.155288778245449
20
-6.251902632463251
10
43.916006647050381
20
-6.251902632463251
10
43.276210390031338
20
-5.2922100350740298
10
46.155288778245449
20
-5.2922100350740298
0
LWPOLYLINE
5
611
100
AcDbEntity
8
0
100
AcDbPolyline
90
4
70
1
43
0.0
10
51.967509351670742
20
-4.3325168416383608
10
47.488942705094814
20
-4.3325168416383608
10
47.488942705094814
20
-3.3728239462259157
10
51.967509351670742
20
-3.3728239462259157
0
LWPOLYLINE
5
612
100
AcDbEntity
8
0
100
AcDbPolyline
90
4
70
1
43
0.0
10
49.088430963456631
20
-4.6524146721246584
10
50.368021093308926
20
-4.6524146721246584
10
50.368021093308926
20
-7.8513908908250674
10
49.088430963456631
20
-7.8513908908250674
0
LINE
5
613
100
AcDbEntity
8
0
100
AcDbLine
10
57.219589315354824
20
-3.3728239462259157
30
0
11
60.418565832078457
21
-3.3728239462259157
31
0
0
LINE
5
614
100
AcDbEntity
8
0
100
AcDbLine
10
60.418565832078457
20
-3.3728239462259157
30
0
11
60.418565832078457
21
-4.3325168416383608
31
0
0
LINE
5
615
100
AcDbEntity
8
0
100
AcDbLine
10
60.418565832078457
20
-4.3325168416383608
30
0
11
57.219589315354824
21
-4.3325168416383608
31
0
0
SPLINE
5
616
100
AcDbEntity
8
0
100
AcDbSpline
70
0
71
2
72
6
73
3
74
0
42
0.000000001
43
0.0000000001
44
0.0000000001
40
0
40
0
40
0
40
1
40
1
40
1
10
57.219589315354824
20
-4.3325168416383608
30
0
10
56.899693571031094
20
-4.3325168416383608
30
0
10
56.899693571031094
20
-4.6524146721246584
30
0
0
LINE
5
617
100
AcDbEntity
8
0
100
AcDbLine
10
56.899693571031094
20
-4.6524146721246584
30
0
11
56.899693571031094
21
-4.9723122045877322
31
0
0
SPLINE
5
618
100
AcDbEntity
8
0
100
AcDbSpline
70
0
71
2
72
6
73
3
74
0
42
0.000000001
43
0.0000000001
44
0.0000000001
40
0
40
0
40
0
40
1
40
1
40
1
10
56.899693571031094
20
-4.9723122045877322
30
0
10
56.899693571031094
20
-5.2922100350740298
30
0
10
57.219589315354824
20
-5.2922100350740298
30
0
0
LINE
5
619
100
AcDbEntity
8
0
100
AcDbLine
10
57.219589315354824
20
-5.2922100350740289
30
0
11
57.859385572373867
21
-5.2922100350740298
31
0
0
LINE
5
620
100
AcDbEntity
8
0
100
AcDbLine
10
57.859385572373867
20
-5.2922100350740298
30
0
11
57.859385572373867
21
-6.251902632463251
31
0
0
LINE
5
621
100
AcDbEntity
8
0
100
AcDbLine
10
57.859385572373867
20
-6.251902632463251
30
0
11
57.219589315354824
21
-6.251902632463251
31
0
0
SPLINE
5
622
100
AcDbEntity
8
0
100
AcDbSpline
70
0
71
2
72
6
73
3
74
0
42
0.000000001
43
0.0000000001
44
0.0000000001
40
0
40
0
40
0
40
1
40
1
40
1
10
57.219589315354824
20
-6.251902632463251
30
0
10
55.620101056993008
20
-6.251902632463251
30
0
10
55.620101056993008
20
-4.9723122045877322
30
0
0
LINE
5
623
100
AcDbEntity
8
0
100
AcDbLine
10
55.620101056993008
20
-4.9723122045877322
30
0
11
55.620101056993008
21
-4.6524146721246584
31
0
0
SPLINE
5
624
100
AcDbEntity
8
0
100
AcDbSpline
70
0
71
2
72
6
73
3
74
0
42
0.000000001
43
0.0000000001
44
0.0000000001
40
0
40
0
40
0
40
1
40
1
40
1
10
55.620101056993008
20
-4.6524146721246584
30
0
10
55.620101056993008
20
-3.3728239462259157
30
0
10
57.219589315354824
20
-3.3728239462259157
30
0
0
LINE
5
625
100
AcDbEntity
8
0
100
AcDbLine
10
58.81907757371664
20
-7.8513908908250674
30
0
11
55.620101056993008
21
-7.8513908908250674
31
0
0
LINE
5
626
100
AcDbEntity
8
0
100
AcDbLine
10
55.620101056993008
20
-7.8513908908250674
30
0
11
55.620101056993008
21
-6.8916982934358462
31
0
0
LINE
5
627
100
AcDbEntity
8
0
100
AcDbLine
10
55.620101056993008
20
-6.8916982934358462
30
0
11
58.81907757371664
21
-6.8916982934358462
31
0
0
SPLINE
5
628
100
AcDbEntity
8
0
100
AcDbSpline
70
0
71
2
72
6
73
3
74
0
42
0.000000001
43
0.0000000001
44
0.0000000001
40
0
40
0
40
0
40
1
40
1
40
1
10
58.81907757371664
20
-6.8916982934358462
30
0
10
59.138973318040371
20
-6.8916982934358462
30
0
10
59.138973318040371
20
-6.5718001649263247
30
0
0
SPLINE
5
629
100
AcDbEntity
8
0
100
AcDbSpline
70
0
71
2
72
6
73
3
74
0
42
0.000000001
43
0.0000000001
44
0.0000000001
40
0
40
0
40
0
40
1
40
1
40
1
10
59.138973318040371
20
-6.5718001649263247
30
0
10
59.138973318040371
20
-6.251902632463251
30
0
10
58.81907757371664
20
-6.251902632463251
30
0
0
LINE
5
630
100
AcDbEntity
8
0
100
AcDbLine
10
58.81907757371664
20
-6.251902632463251
30
0
11
58.179281316697598
21
-6.251902632463251
31
0
0
LINE
5
631
100
AcDbEntity
8
0
100
AcDbLine
10
58.179281316697598
20
-6.251902632463251
30
0
11
58.179281316697598
21
-5.2922100350740298
31
0
0
LINE
5
632
100
AcDbEntity
8
0
100
AcDbLine
10
58.179281316697598
20
-5.2922100350740298
30
0
11
58.81907757371664
21
-5.2922100350740298
31
0
0
SPLINE
5
633
100
AcDbEntity
8
0
100
AcDbSpline
70
0
71
2
72
6
73
3
74
0
42
0.000000001
43
0.0000000001
44
0.0000000001
40
0
40
0
40
0
40
1
40
1
40
1
10
58.81907757371664
20
-5.2922100350740298
30
0
10
60.418565832078457
20
-5.2922100350740298
30
0
10
60.418565832078457
20
-6.5718001649263247
30
0
0
SPLINE
5
634
100
AcDbEntity
8
0
100
AcDbSpline
70
0
71
2
72
6
73
3
74
0
42
0.000000001
43
0.0000000001
44
0.0000000001
40
0
40
0
40
0
40
1
40
1
40
1
10
60.418565832078457
20
-6.5718001649263247
30
0
10
60.418565832078457
20
-7.8513908908250674
30
0
10
58.81907757371664
20
-7.8513908908250674
30
0
0
LWPOLYLINE
5
635
100
AcDbEntity
8
0
100
AcDbPolyline
90
4
70
1
43
0.0
10
63.08299358934164
20
-4.1277823374154909
10
63.745182119309902
20
-2.8513908908250674
10
66.33635338395834
20
-7.8513908908250674
10
64.960792623460293
20
-7.8513908908250674
0
LWPOLYLINE
5
636
100
AcDbEntity
8
0
100
AcDbPolyline
90
4
70
1
43
0.0
10
63.556440435349941
20
-5.8296376988771303
10
62.529571615159512
20
-7.8513908908250674
10
61.154010854661465
20
-7.8513908908250674
10
62.887857519090176
20
-4.5052615330102785
0
LWPOLYLINE
5
637
100
AcDbEntity
8
0
100
AcDbPolyline
90
4
70
1
43
0.0
10
67.318118177354336
20
-2.4131310508134707
10
72.116582952439785
20
-7.2115958258989199
10
72.116582952439785
20
-8.8110834882142886
10
67.318118177354336
20
-4.0126193091752871
0
LWPOLYLINE
5
638
100
AcDbEntity
8
0
100
AcDbPolyline
90
4
70
1
43
0.0
10
70.836990438401699
20
-5.4841483161332949
10
70.836990438401699
20
-3.3728239462259157
10
72.116582952439785
20
-3.3728239462259157
10
72.116582952439785
20
-6.7637390420320376
0
LWPOLYLINE
5
639
100
AcDbEntity
8
0
100
AcDbPolyline
90
4
70
1
43
0.0
10
68.597710691392422
20
-5.7400662228944643
10
68.597710691392422
20
-7.8513908908250674
10
67.318118177354336
20
-7.8513908908250674
10
67.318118177354336
20
-4.4604760930421694
0
LINE
5
640
100
AcDbEntity
8
0
100
AcDbLine
10
75.049727521836758
20
-3.3728239462259157
30
0
11
78.24870403856039
21
-3.3728239462259157
31
0
0
LINE
5
641
100
AcDbEntity
8
0
100
AcDbLine
10
78.24870403856039
20
-3.3728239462259157
30
0
11
78.24870403856039
21
-4.3325168416383608
31
0
0
LINE
5
642
100
AcDbEntity
8
0
100
AcDbLine
10
78.24870403856039
20
-4.3325168416383608
30
0
11
75.049727521836758
21
-4.3325168416383608
31
0
0
SPLINE
5
643
100
AcDbEntity
8
0
100
AcDbSpline
70
0
71
2
72
6
73
3
74
0
42
0.000000001
43
0.0000000001
44
0.0000000001
40
0
40
0
40
0
40
1
40
1
40
1
10
75.049727521836758
20
-4.3325168416383608
30
0
10
74.729831777513027
20
-4.3325168416383608
30
0
10
74.729831777513027
20
-4.6524146721246584
30
0
0
LINE
5
644
100
AcDbEntity
8
0
100
AcDbLine
10
74.729831777513027
20
-4.6524146721246584
30
0
11
74.729831777513027
21
-6.5718001649263247
31
0
0
SPLINE
5
645
100
AcDbEntity
8
0
100
AcDbSpline
70
0
71
2
72
6
73
3
74
0
42
0.000000001
43
0.0000000001
44
0.0000000001
40
0
40
0
40
0
40
1
40
1
40
1
10
74.729831777513027
20
-6.5718001649263247
30
0
10
74.729831777513027
20
-6.8916982934358462
30
0
10
75.049727521836758
20
-6.8916982934358462
30
0
0
LINE
5
646
100
AcDbEntity
8
0
100
AcDbLine
10
75.049727521836758
20
-6.8916982934358462
30
0
11
76.649215780198574
21
-6.8916982934358462
31
0
0
LINE
5
647
100
AcDbEntity
8
0
100
AcDbLine
10
76.649215780198574
20
-6.8916982934358462
30
0
11
76.649215780198574
21
-7.8513908908250674
31
0
0
LINE
5
648
100
AcDbEntity
8
0
100
AcDbLine
10
76.649215780198574
20
-7.8513908908250674
30
0
11
75.049727521836758
21
-7.8513908908250674
31
0
0
SPLINE
5
649
100
AcDbEntity
8
0
100
AcDbSpline
70
0
71
2
72
6
73
3
74
0
42
0.000000001
43
0.0000000001
44
0.0000000001
40
0
40
0
40
0
40
1
40
1
40
1
10
75.049727521836758
20
-7.8513908908250674
30
0
10
73.450239263474941
20
-7.8513908908250674
30
0
10
73.450239263474941
20
-6.5718001649263247
30
0
0
LINE
5
650
100
AcDbEntity
8
0
100
AcDbLine
10
73.450239263474941
20
-6.5718001649263247
30
0
11
73.450239263474941
21
-4.6524146721246584
31
0
0
SPLINE
5
651
100
AcDbEntity
8
0
100
AcDbSpline
70
0
71
2
72
6
73
3
74
0
42
0.000000001
43
0.0000000001
44
0.0000000001
40
0
40
0
40
0
40
1
40
1
40
1
10
73.450239263474941
20
-4.6524146721246584
30
0
10
73.450239263474941
20
-3.3728239462259157
30
0
10
75.049727521836758
20
-3.3728239462259157
30
0
0
LWPOLYLINE
5
652
100
AcDbEntity
8
0
100
AcDbPolyline
90
6
70
1
43
0.0
10
78.24870403856039
20
-7.8513908908250674
10
76.969111524522305
20
-7.8513908908250674
10
76.969111524522305
20
-6.251902632463251
10
76.009419523179531
20
-6.251902632463251
10
75.369623266160488
20
-5.2922100350740298
10
78.24870403856039
20
-5.2922100350740298
0
LWPOLYLINE
5
653
100
AcDbEntity
8
0
100
AcDbPolyline
90
4
70
1
43
0.0
10
79.582360349595547
20
-3.3728239462259157
10
80.861952863633633
20
-3.3728239462259157
10
80.861952863633633
20
-7.8513908908250674
10
79.582360349595547
20
-7.8513908908250674
0
LWPOLYLINE
5
654
100
AcDbEntity
8
0
100
AcDbPolyline
90
8
70
1
43
0.0
10
83.10123261064291
20
-6.251902632463251
10
81.821644864976406
20
-6.251902632463251
10
81.181848607957363
20
-5.2922100350740298
10
83.10123261064291
20
-5.2922100350740298
10
83.10123261064291
20
-3.3728239462259157
10
84.380825124680996
20
-3.3728239462259157
10
84.380825124680996
20
-7.8513908908250674
10
83.10123261064291
20
-7.8513908908250674
0
LWPOLYLINE
5
655
100
AcDbEntity
8
0
100
AcDbPolyline
90
4
70
1
43
0.0
10
87.291572652757168
20
-4.1277823374154909
10
87.95376118272543
20
-2.8513908908250674
10
90.544932447373867
20
-7.8513908908250674
10
89.16937168687582
20
-7.8513908908250674
0
LWPOLYLINE
5
656
100
AcDbEntity
8
0
100
AcDbPolyline
90
4
70
1
43
0.0
10
87.765019498765469
20
-5.8296376988771303
10
86.738150678575039
20
-7.8513908908250674
10
85.362589918076992
20
-7.8513908908250674
10
87.096436582505703
20
-4.5052615330102785
0
LWPOLYLINE
5
657
100
AcDbEntity
8
0
100
AcDbPolyline
90
4
70
1
43
0.0
10
91.526702009141445
20
-2.4131310508134707
10
96.325152479112148
20
-7.2115958258989199
10
96.325152479112148
20
-8.8110834882142886
10
91.526702009141445
20
-4.0126193091752871
0
LWPOLYLINE
5
658
100
AcDbEntity
8
0
100
AcDbPolyline
90
4
70
1
43
0.0
10
95.045569501817226
20
-5.4841483161332949
10
95.045569501817226
20
-3.3728239462259157
10
96.325152479112148
20
-3.3728239462259157
10
96.325152479112148
20
-6.7637390420320376
0
LWPOLYLINE
5
659
100
AcDbEntity
8
0
100
AcDbPolyline
90
4
70
1
43
0.0
10
92.806284986436367
20
-5.7400662228944643
10
92.806284986436367
20
-7.8513908908250674
10
91.526702009141445
20
-7.8513908908250674
10
91.526702009141445
20
-4.4604760930421694
0
LWPOLYLINE
5
660
100
AcDbEntity
8
0
100
AcDbPolyline
90
4
70
1
43
0.0
10
97.658827863633633
20
-3.3728239462259157
10
98.938410840928555
20
-3.3728239462259157
10
98.938410840928555
20
-7.8513908908250674
10
97.658827863633633
20
-7.8513908908250674
0
ENDSEC
0
SECTION
2
OBJECTS
0
DICTIONARY
5
C
100
AcDbDictionary
3
ACAD_GROUP
350
D
3
ACAD_MLINESTYLE
350
17
0
DICTIONARY
5
D
100
AcDbDictionary
0
DICTIONARY
5
1A
330
C
100
AcDbDictionary
0
DICTIONARY
5
17
100
AcDbDictionary
0
ENDSEC
0
EOF
