0
SECTION
2
HEADER
9
$INSUNITS
70
4
9
$ACADVER
1
AC1014
9
$HANDSEED
5
FFFF
0
ENDSEC
0
SECTION
2
TABLES
0
TABLE
2
VPORT
5
8
100
AcDbSymbolTable
0
ENDTAB
0
TABLE
2
LTYPE
5
5
100
AcDbSymbolTable
0
LTYPE
5
14
100
AcDbSymbolTableRecord
100
AcDbLinetypeTableRecord
2
BYBLOCK
70
0
0
LTYPE
5
15
100
AcDbSymbolTableRecord
100
AcDbLinetypeTableRecord
2
BYLAYER
70
0
0
ENDTAB
0
TABLE
2
LAYER
5
2
100
AcDbSymbolTable
70
2
0
LAYER
5
50
100
AcDbSymbolTableRecord
100
AcDbLayerTableRecord
2
0
70
0
6
CONTINUOUS
0
ENDTAB
0
TABLE
2
STYLE
5
3
100
AcDbSymbolTable
70
1
0
STYLE
5
11
100
AcDbSymbolTableRecord
100
AcDbTextStyleTableRecord
2
STANDARD
70
0
0
ENDTAB
0
TABLE
2
VIEW
5
6
100
AcDbSymbolTable
70
0
0
ENDTAB
0
TABLE
2
UCS
5
7
100
AcDbSymbolTable
70
0
0
ENDTAB
0
TABLE
2
APPID
5
9
100
AcDbSymbolTable
70
2
0
APPID
5
12
100
AcDbSymbolTableRecord
100
AcDbRegAppTableRecord
2
ACAD
70
0
0
ENDTAB
0
TABLE
2
DIMSTYLE
5
A
100
AcDbSymbolTable
70
1
0
ENDTAB
0
TABLE
2
BLOCK_RECORD
5
1
100
AcDbSymbolTable
70
1
0
BLOCK_RECORD
5
1F
100
AcDbSymbolTableRecord
100
AcDbBlockTableRecord
2
*MODEL_SPACE
0
BLOCK_RECORD
5
1B
100
AcDbSymbolTableRecord
100
AcDbBlockTableRecord
2
*PAPER_SPACE
0
ENDTAB
0
ENDSEC
0
SECTION
2
BLOCKS
0
BLOCK
5
20
100
AcDbEntity
100
AcDbBlockBegin
2
*MODEL_SPACE
0
ENDBLK
5
21
100
AcDbEntity
100
AcDbBlockEnd
0
BLOCK
5
1C
100
AcDbEntity
100
AcDbBlockBegin
2
*PAPER_SPACE
0
ENDBLK
5
1D
100
AcDbEntity
100
AcDbBlockEnd
0
ENDSEC
0
SECTION
2
ENTITIES
0
LWPOLYLINE
5
100
100
AcDbEntity
8
0
100
AcDbPolyline
90
4
70
1
43
0.0
10
86.000001281499863
20
-11.500000171363354
10
86.000001281499863
20
-21.500000320374966
10
142.00000211596489
20
-21.500000320374966
10
142.00000211596489
20
-11.500000171363354
0
LWPOLYLINE
5
101
100
AcDbEntity
8
0
100
AcDbPolyline
90
13
70
1
43
0.0
10
82.000001221895218
20
-35.000000521540642
10
82.000001221895218
20
-25.00000037252903
10
126.06115914881229
20
-25.00000037252903
10
126.06115914881229
20
-23.64363431930542
10
127.4175252020359
20
-25.00000037252903
10
137.00000204145908
20
-25.00000037252903
10
137.00000204145908
20
-35.000000521540642
10
135.65808869898319
20
-35.000000521540642
10
135.65808869898319
20
-36.439540386199951
10
134.21854883432388
20
-35.000000521540642
10
109.61826139998445
20
-35.000000521540642
10
109.3261680752039
20
-35.563020706176758
10
109.03439173043466
20
-35.000000521540642
0
LWPOLYLINE
5
102
100
AcDbEntity
8
0
100
AcDbPolyline
90
10
70
1
43
0.0
10
69.000001028180137
20
-38.69481801986695
10
69.000001028180122
20
-48.694818019866943
10
100.78003503382206
20
-48.694818019866943
10
102.17798806726933
20
-50.092771053314209
10
102.17798806726933
20
-48.694818019866943
10
103.0000015348196
20
-48.694818019866943
10
103.0000015348196
20
-38.69481801986695
10
93.979011550545692
20
-38.69481801986695
10
92.581058517098427
20
-37.296864986419678
10
92.581058517098427
20
-38.69481801986695
0
LWPOLYLINE
5
103
100
AcDbEntity
8
0
100
AcDbPolyline
90
16
70
1
43
0.0
10
67.0000009983778
20
-38.694818019866943
10
67.0000009983778
20
-48.694818019866943
10
55.490852370858192
20
-48.694818019866943
10
55.490852370858192
20
-50.092771053314209
10
54.092899337410927
20
-48.694818019866943
10
40.035449042916298
20
-48.694818019866943
10
40.035449042916298
20
-50.092771053314209
10
38.637496009469032
20
-48.694818019866943
10
29.000000432133675
20
-48.694818019866943
10
29.000000432133675
20
-38.694818019866943
10
30.438519492745399
20
-38.694818019866943
10
30.438519492745399
20
-37.296864986419678
10
31.836472526192665
20
-38.694818019866943
10
45.893922820687294
20
-38.694818019866943
10
45.893922820687294
20
-37.296864986419678
10
47.29187585413456
20
-38.694818019866943
0
LWPOLYLINE
5
104
100
AcDbEntity
8
0
100
AcDbPolyline
90
10
70
1
43
0.0
10
67.624276932630323
20
-21.500000320374966
10
67.411910071969032
20
-21.9097900390625
10
67.199543015904794
20
-21.500000320374966
10
63.785554934501278
20
-21.500000320374966
10
63.573137298226357
20
-21.9097900390625
10
63.360770242162118
20
-21.500000320374966
10
47.000000700354576
20
-21.500000320374966
10
47.000000700354576
20
-11.500000171363354
10
84.00000125169754
20
-11.500000171363354
10
84.00000125169754
20
-21.500000320374966
0
LWPOLYLINE
5
105
100
AcDbEntity
8
0
100
AcDbPolyline
90
5
70
1
43
0.0
10
88.000001311302185
20
-79.500001192092896
10
88.000001311302185
20
-89.500001192092896
10
21.000000312924385
20
-89.500001192092896
10
21.000000312924385
20
-79.500001192092896
10
21.000000326056156
20
-79.500001192092896
0
LWPOLYLINE
5
106
100
AcDbEntity
8
0
100
AcDbPolyline
90
10
70
1
43
0.0
10
81.000001206994057
20
-52.34804630279541
10
81.000001206994057
20
-62.34804630279541
10
112.09110118448734
20
-62.34804630279541
10
113.48905183374882
20
-63.745996952056885
10
113.48905183374882
20
-62.34804630279541
10
114.47769422568879
20
-62.34804630279541
10
114.47769422568879
20
-52.34804630279541
10
105.29007770121098
20
-52.34804630279541
10
103.89212228357792
20
-50.950090885162354
10
103.89212228357792
20
-52.34804630279541
0
LWPOLYLINE
5
107
100
AcDbEntity
8
0
100
AcDbPolyline
90
16
70
1
43
0.0
10
80.847087875008583
20
-76.000000983476639
10
80.847087875008583
20
-77.399227619171143
10
79.447861239314079
20
-76.000000983476639
10
54.786052886222265
20
-76.000000983476639
10
54.515167251229286
20
-76.52271032333374
10
54.244281242365453
20
-76.000000983476639
10
50.947341100020445
20
-76.000000983476639
10
50.676389709115028
20
-76.52271032333374
10
50.405504074122049
20
-76.000000983476639
10
33.000000491738319
20
-76.000000983476639
10
33.000000491738319
20
-66.000000983476639
10
71.250158324837685
20
-66.000000983476639
10
71.250158324837685
20
-64.603321552276611
10
72.646837756037712
20
-66.000000983476639
10
103.50613810650509
20
-66.000000983476639
10
103.50613810650509
20
-76.000000983476639
0
LWPOLYLINE
5
108
100
AcDbEntity
8
0
100
AcDbPolyline
90
4
70
1
43
0.0
10
90.488358280952667
20
-89.500001192092896
10
90.488358280952667
20
-79.500001192092896
10
138.91479029055091
20
-79.500001192092896
10
138.91479029055091
20
-89.500001192092896
0
LWPOLYLINE
5
109
100
AcDbEntity
8
0
100
AcDbPolyline
90
13
70
1
43
0.0
10
62.593874581683195
20
-62.34804630279541
10
62.32335664331913
20
-62.869479656219482
10
62.053132018954784
20
-62.34804630279541
10
33.965815964683657
20
-62.34804630279541
10
33.69559146463871
20
-62.869479656219482
10
33.425366840274364
20
-62.34804630279541
10
30.127108242338323
20
-62.34804630279541
10
29.856818690896034
20
-62.869479656219482
10
29.586594128691388
20
-62.34804630279541
10
13.000000193715096
20
-62.34804630279541
10
13.000000193715096
20
-52.34804630279541
10
78.000001162290573
20
-52.34804630279541
10
78.000001162290573
20
-62.34804630279541
0
LWPOLYLINE
5
110
100
AcDbEntity
8
0
100
AcDbPolyline
90
7
70
1
43
0.0
10
32.762482705831616
20
-35.000000521540642
10
32.470389381051064
20
-35.563020706176758
10
32.178613036281831
20
-35.000000521540642
10
11.000000163912773
20
-35.000000521540642
10
11.000000163912773
20
-25.00000037252903
10
49.000000730156898
20
-25.00000037252903
10
49.000000730156898
20
-35.000000521540642
0
LINE
5
111
100
AcDbEntity
8
0
100
AcDbLine
10
32.611142173409462
20
-21.500000320374966
30
0
11
32.611142173409462
21
-22.786309719085693
31
0
0
LINE
5
112
100
AcDbEntity
8
0
100
AcDbLine
10
44.000000655651093
20
-11.500000171363354
30
0
11
44.000000655651093
21
-21.500000320374966
31
0
0
LWPOLYLINE
5
113
100
AcDbEntity
8
0
100
AcDbPolyline
90
4
70
1
43
0.0
10
51.000000759959221
20
-25.00000037252903
10
51.000000759959221
20
-35.000000521540642
10
79.000001177191734
20
-35.000000521540642
10
79.000001177191734
20
-25.00000037252903
0
LWPOLYLINE
5
114
100
AcDbEntity
8
0
100
AcDbPolyline
90
2
70
1
43
0.0
10
23.023808971047401
20
-10
10
23.014212623238564
20
-10
0
LINE
5
115
100
AcDbEntity
8
0
100
AcDbLine
10
23.014212623238564
20
-11.500000171363354
30
0
11
23.014212623238564
21
-9.9904036521911621
31
0
0
LINE
5
116
100
AcDbEntity
8
0
100
AcDbLine
10
11.000000163912773
20
-21.500000320374966
30
0
11
11.000000163912773
21
-11.494218760951407
31
0
0
LINE
5
117
100
AcDbEntity
8
0
100
AcDbLine
10
32.611142173409462
20
-22.786309719085693
30
0
11
31.324832774698734
21
-21.500000320374966
31
0
0
LINE
5
118
100
AcDbEntity
8
0
100
AcDbLine
10
23.014212623238564
20
-9.9904036521911621
30
0
11
24.523809142410755
21
-11.500000171363354
31
0
0
LWPOLYLINE
5
119
100
AcDbEntity
8
0
100
AcDbPolyline
90
13
70
1
43
0.0
10
105.00000156462193
20
-38.69481801986695
10
105.00000156462193
20
-48.694818019866943
10
143.32937830728272
20
-48.694818019866943
10
143.59960176050663
20
-49.216248989105225
10
143.87011896726432
20
-48.694818019866943
10
168.53357888758183
20
-48.694818019866943
10
169.93153192102909
20
-50.092771053314209
10
169.93153192102909
20
-48.694818019866943
10
171.00000254809856
20
-48.694818019866943
10
171.00000254809856
20
-38.694818019866943
10
161.73255540430546
20
-38.694818019866943
10
160.33460237085819
20
-37.296864986419678
10
160.33460237085819
20
-38.694818019866943
0
LWPOLYLINE
5
120
100
AcDbEntity
8
0
100
AcDbPolyline
90
4
70
1
43
0.0
10
139.00000207126141
20
-35.000000521540642
10
188.0000028014183
20
-35.000000521540642
10
188.0000028014183
20
-25.00000037252903
10
139.00000207126141
20
-25.00000037252903
0
LWPOLYLINE
5
121
100
AcDbEntity
8
0
100
AcDbPolyline
90
4
70
1
43
0.0
10
144.00000214576721
20
-21.500000320374966
10
189.00000281631947
20
-21.500000320374966
10
189.00000281631947
20
-11.500000171363354
10
144.00000214576721
20
-11.500000171363354
0
LWPOLYLINE
5
122
100
AcDbEntity
8
0
100
AcDbPolyline
90
4
70
1
43
0.0
10
105.755658346324
20
-76.000000983476639
10
166.00000247359276
20
-76.000000983476639
10
166.00000247359276
20
-66.000000983476639
10
105.755658346324
20
-66.000000983476639
0
LWPOLYLINE
5
123
100
AcDbEntity
8
0
100
AcDbPolyline
90
7
70
1
43
0.0
10
141.00000210106373
20
-79.500001192092896
10
178.00000265240669
20
-79.500001192092896
10
178.00000265240669
20
-89.500001192092896
10
162.46122030859249
20
-89.500001192092896
10
162.11054421961308
20
-90.175936222076416
10
161.76025136728788
20
-89.500001192092896
10
141.00000210106373
20
-89.500001192092896
0
LWPOLYLINE
5
124
100
AcDbEntity
8
0
100
AcDbPolyline
90
10
70
1
43
0.0
10
116.63291322923426
20
-52.34804630279541
10
116.63291322923426
20
-62.34804630279541
10
184.20062340318535
20
-62.34804630279541
10
185.59856988489628
20
-63.745996952056885
10
185.59856988489628
20
-62.34804630279541
10
186.39034676710278
20
-62.34804630279541
10
186.39034676710278
20
-52.34804630279541
10
177.39962019502318
20
-52.34804630279541
10
176.00166894495487
20
-50.950090885162354
10
176.00166894495487
20
-52.34804630279541
0
LINE
5
125
100
AcDbEntity
8
0
100
AcDbLine
10
11.000000163912773
20
-11.500000171363354
30
0
11
23.014212623238564
21
-11.500000171363354
31
0
0
LINE
5
126
100
AcDbEntity
8
0
100
AcDbLine
10
24.523809142410755
20
-11.500000171363354
30
0
11
44.000000655651093
21
-11.500000171363354
31
0
0
LINE
5
127
100
AcDbEntity
8
0
100
AcDbLine
10
11.000000163912773
20
-21.500000320374966
30
0
11
31.324832774698734
21
-21.500000320374966
31
0
0
LINE
5
128
100
AcDbEntity
8
0
100
AcDbLine
10
32.611142173409462
20
-21.500000320374966
30
0
11
44.000000655651093
21
-21.500000320374966
31
0
0
LWPOLYLINE
5
129
100
AcDbEntity
8
0
100
AcDbPolyline
90
8
70
1
43
0.0
10
200
20
-1.9999999999999976
42
0.41421356237309476
10
198
20
-1.5265566588595902e-14
10
1.9999999999999996
20
0
42
0.41421356237309503
10
0
20
-1.9999999999999929
10
-5.8286708792820718e-15
20
-98
42
0.41421356237309065
10
1.9999999999999574
20
-100
10
198
20
-100.00000000000006
42
0.41421356237309503
10
200
20
-98.000000000000043
0
CIRCLE
5
130
100
AcDbEntity
8
0
100
AcDbCircle
10
4.9999999999999947
20
-5
30
0
40
1.7500000000000004
210
0
220
0
230
1
0
CIRCLE
5
131
100
AcDbEntity
8
0
100
AcDbCircle
10
4.9999999999999947
20
-95
30
0
40
1.7500000000000049
210
0
220
0
230
1
0
CIRCLE
5
132
100
AcDbEntity
8
0
100
AcDbCircle
10
107.99999999999999
20
-95
30
0
40
1.7499999999999949
210
0
220
0
230
1
0
CIRCLE
5
133
100
AcDbEntity
8
0
100
AcDbCircle
10
195
20
-95
30
0
40
1.7500000000000058
210
0
220
0
230
1
0
CIRCLE
5
134
100
AcDbEntity
8
0
100
AcDbCircle
10
195
20
-45
30
0
40
1.7499999999999925
210
0
220
0
230
1
0
CIRCLE
5
135
100
AcDbEntity
8
0
100
AcDbCircle
10
195
20
-5
30
0
40
1.7500000000000029
210
0
220
0
230
1
0
CIRCLE
5
136
100
AcDbEntity
8
0
100
AcDbCircle
10
107.99999999999999
20
-5
30
0
40
1.7500000000000027
210
0
220
0
230
1
0
CIRCLE
5
137
100
AcDbEntity
8
0
100
AcDbCircle
10
4.9999999999999947
20
-5
30
0
40
1.7500000000000004
210
0
220
0
230
1
0
CIRCLE
5
138
100
AcDbEntity
8
0
100
AcDbCircle
10
4.9999999999999947
20
-45
30
0
40
1.75
210
0
220
0
230
1
0
LWPOLYLINE
5
139
100
AcDbEntity
8
0
100
AcDbPolyline
90
4
70
1
43
0.0
10
13.341898086882711
20
-2.2676667462818445
10
52.4372484400158
20
-2.2676667462818445
10
52.4372484400158
20
-8.7915914677571259
10
13.341898086882711
20
-8.7915914677571259
0
LWPOLYLINE
5
140
100
AcDbEntity
8
0
100
AcDbPolyline
90
4
70
1
43
0.0
10
55.065337490552011
20
-2.2676667462818445
10
99.537531892594316
20
-2.2676667462818445
10
99.537531892594316
20
-8.787666746281845
10
55.065337490552011
20
-8.787666746281845
0
ENDSEC
0
SECTION
2
OBJECTS
0
DICTIONARY
5
C
100
AcDbDictionary
3
ACAD_GROUP
350
D
3
ACAD_MLINESTYLE
350
17
0
DICTIONARY
5
D
100
AcDbDictionary
0
DICTIONARY
5
1A
330
C
100
AcDbDictionary
0
DICTIONARY
5
17
100
AcDbDictionary
0
ENDSEC
0
EOF
